<svg preserveAspectRatio="none" width="100%" height="100%" overflow="visible" style="display: block;" viewBox="0 0 21 23" fill="none" xmlns="http://www.w3.org/2000/svg">
<g id="Group 258">
<g id="&#234;&#183;&#184;&#235;&#163;&#185; 1083">
<path id="Vector 13 (Stroke)" fill-rule="evenodd" clip-rule="evenodd" d="M1.5105 22.1H18.9205L20.3205 8.1H0.110499L1.5105 22.1ZM3.32047 20.1L2.32047 10.1H18.1105L17.1105 20.1H3.32047Z" fill="currentColor"/>
<path id="Vector 13 (Stroke) (Stroke)" fill-rule="evenodd" clip-rule="evenodd" d="M1.42 22.2H19.011L20.431 8H0L1.42 22.2ZM1.601 22L0.220998 8.2H20.21L18.83 22H1.601ZM3.22998 20.2H17.201L18.221 10H2.20998L3.22998 20.2ZM3.41097 20L2.43097 10.2H18L17.02 20H3.41097Z" fill="currentColor"/>
</g>
<path id="Subtract" fill-rule="evenodd" clip-rule="evenodd" d="M9.77725 0.1C7.56812 0.1 5.77725 1.89086 5.77725 4.1V9.1H7.77725V4.1C7.77725 2.99543 8.67268 2.1 9.77725 2.1C10.8818 2.1 11.7773 2.99543 11.7773 4.1V9.1H13.7773V4.1C13.7773 1.89086 11.9864 0.1 9.77725 0.1Z" fill="currentColor"/>
<path id="Subtract (Stroke)" fill-rule="evenodd" clip-rule="evenodd" d="M9.77725 0.2C7.62334 0.2 5.87725 1.94609 5.87725 4.1V9H7.67725V4.1C7.67725 2.9402 8.61746 2 9.77725 2C10.9371 2 11.8773 2.9402 11.8773 4.1V9H13.6773V4.1C13.6773 1.94609 11.9312 0.2 9.77725 0.2ZM5.67725 4.1C5.67725 1.83563 7.51289 0 9.77725 0C12.0416 0 13.8773 1.83563 13.8773 4.1V9.2H11.6773V4.1C11.6773 3.05066 10.8266 2.2 9.77725 2.2C8.72791 2.2 7.87725 3.05066 7.87725 4.1V9.2H5.67725V4.1Z" fill="currentColor"/>
</g>
</svg>
