<svg preserveAspectRatio="none" width="100%" height="100%" overflow="visible" style="display: block;" viewBox="0 0 24 24" fill="none" xmlns="http://www.w3.org/2000/svg">
<g id="icon/24/dm">
<path id="Vector 3" d="M15.4867 8.75706C15.9048 8.48827 16.0258 7.93143 15.7571 7.51332C15.4883 7.09521 14.9314 6.97415 14.5133 7.24294L15.4867 8.75706ZM8.18156 13.7709L7.29061 13.8982L8.18156 13.7709ZM9.07995 11.8057L8.59327 11.0487L9.07995 11.8057ZM21.5477 7.21335L20.8323 6.66734L21.5477 7.21335ZM6.5 10.5L7.1364 9.8636L4.05061 6.77782L3.41422 7.41422L2.77782 8.05061L5.8636 11.1364L6.5 10.5ZM4.82874 4V4.9C4.83904 4.9 4.84934 4.9 4.85964 4.9C4.86994 4.9 4.88024 4.9 4.89053 4.9C4.90083 4.9 4.91112 4.9 4.9214 4.9C4.93169 4.9 4.94198 4.9 4.95226 4.9C4.96254 4.9 4.97282 4.9 4.98309 4.9C4.99337 4.9 5.00364 4.9 5.01391 4.9C5.02418 4.9 5.03445 4.9 5.04471 4.9C5.05498 4.9 5.06524 4.9 5.07549 4.9C5.08575 4.9 5.09601 4.9 5.10626 4.9C5.11651 4.9 5.12676 4.9 5.13701 4.9C5.14726 4.9 5.1575 4.9 5.16774 4.9C5.17798 4.9 5.18822 4.9 5.19846 4.9C5.20869 4.9 5.21892 4.9 5.22915 4.9C5.23938 4.9 5.24961 4.9 5.25983 4.9C5.27006 4.9 5.28028 4.9 5.2905 4.9C5.30072 4.9 5.31093 4.9 5.32115 4.9C5.33136 4.9 5.34157 4.9 5.35178 4.9C5.36198 4.9 5.37219 4.9 5.38239 4.9C5.39259 4.9 5.40279 4.9 5.41299 4.9C5.42318 4.9 5.43338 4.9 5.44357 4.9C5.45376 4.9 5.46395 4.9 5.47413 4.9C5.48432 4.9 5.4945 4.9 5.50468 4.9C5.51486 4.9 5.52504 4.9 5.53521 4.9C5.54539 4.9 5.55556 4.9 5.56573 4.9C5.5759 4.9 5.58606 4.9 5.59623 4.9C5.60639 4.9 5.61655 4.9 5.62671 4.9C5.63687 4.9 5.64702 4.9 5.65718 4.9C5.66733 4.9 5.67748 4.9 5.68763 4.9C5.69778 4.9 5.70792 4.9 5.71807 4.9C5.72821 4.9 5.73835 4.9 5.74849 4.9C5.75862 4.9 5.76876 4.9 5.77889 4.9C5.78902 4.9 5.79915 4.9 5.80928 4.9C5.81941 4.9 5.82953 4.9 5.83965 4.9C5.84977 4.9 5.85989 4.9 5.87001 4.9C5.88013 4.9 5.89024 4.9 5.90035 4.9C5.91046 4.9 5.92057 4.9 5.93068 4.9C5.94079 4.9 5.95089 4.9 5.96099 4.9C5.97109 4.9 5.98119 4.9 5.99129 4.9C6.00138 4.9 6.01148 4.9 6.02157 4.9C6.03166 4.9 6.04175 4.9 6.05184 4.9C6.06192 4.9 6.07201 4.9 6.08209 4.9C6.09217 4.9 6.10225 4.9 6.11233 4.9C6.1224 4.9 6.13248 4.9 6.14255 4.9C6.15262 4.9 6.16269 4.9 6.17276 4.9C6.18282 4.9 6.19289 4.9 6.20295 4.9C6.21301 4.9 6.22307 4.9 6.23313 4.9C6.24318 4.9 6.25324 4.9 6.26329 4.9C6.27334 4.9 6.28339 4.9 6.29344 4.9C6.30349 4.9 6.31353 4.9 6.32357 4.9C6.33362 4.9 6.34366 4.9 6.3537 4.9C6.36373 4.9 6.37377 4.9 6.3838 4.9C6.39383 4.9 6.40387 4.9 6.41389 4.9C6.42392 4.9 6.43395 4.9 6.44397 4.9C6.454 4.9 6.46402 4.9 6.47404 4.9C6.48406 4.9 6.49407 4.9 6.50409 4.9C6.5141 4.9 6.52411 4.9 6.53412 4.9C6.54413 4.9 6.55414 4.9 6.56415 4.9C6.57415 4.9 6.58415 4.9 6.59416 4.9C6.60416 4.9 6.61416 4.9 6.62415 4.9C6.63415 4.9 6.64414 4.9 6.65413 4.9C6.66413 4.9 6.67411 4.9 6.6841 4.9C6.69409 4.9 6.70407 4.9 6.71406 4.9C6.72404 4.9 6.73402 4.9 6.744 4.9C6.75398 4.9 6.76395 4.9 6.77393 4.9C6.7839 4.9 6.79387 4.9 6.80384 4.9C6.81381 4.9 6.82378 4.9 6.83375 4.9C6.84371 4.9 6.85367 4.9 6.86363 4.9C6.8736 4.9 6.88355 4.9 6.89351 4.9C6.90347 4.9 6.91342 4.9 6.92337 4.9C6.93333 4.9 6.94328 4.9 6.95323 4.9C6.96317 4.9 6.97312 4.9 6.98306 4.9C6.99301 4.9 7.00295 4.9 7.01289 4.9C7.02283 4.9 7.03277 4.9 7.0427 4.9C7.05264 4.9 7.06257 4.9 7.0725 4.9C7.08243 4.9 7.09236 4.9 7.10229 4.9C7.11222 4.9 7.12214 4.9 7.13206 4.9C7.14199 4.9 7.15191 4.9 7.16183 4.9C7.17175 4.9 7.18166 4.9 7.19158 4.9C7.20149 4.9 7.21141 4.9 7.22132 4.9C7.23123 4.9 7.24114 4.9 7.25104 4.9C7.26095 4.9 7.27086 4.9 7.28076 4.9C7.29066 4.9 7.30056 4.9 7.31046 4.9C7.32036 4.9 7.33026 4.9 7.34015 4.9C7.35005 4.9 7.35994 4.9 7.36983 4.9C7.37972 4.9 7.38961 4.9 7.3995 4.9C7.40939 4.9 7.41927 4.9 7.42916 4.9C7.43904 4.9 7.44892 4.9 7.4588 4.9C7.46868 4.9 7.47856 4.9 7.48843 4.9C7.49831 4.9 7.50818 4.9 7.51805 4.9C7.52793 4.9 7.5378 4.9 7.54766 4.9C7.55753 4.9 7.5674 4.9 7.57726 4.9C7.58713 4.9 7.59699 4.9 7.60685 4.9C7.61671 4.9 7.62657 4.9 7.63643 4.9C7.64628 4.9 7.65614 4.9 7.66599 4.9C7.67585 4.9 7.6857 4.9 7.69555 4.9C7.7054 4.9 7.71524 4.9 7.72509 4.9C7.73494 4.9 7.74478 4.9 7.75462 4.9C7.76447 4.9 7.77431 4.9 7.78414 4.9C7.79398 4.9 7.80382 4.9 7.81366 4.9C7.82349 4.9 7.83332 4.9 7.84316 4.9C7.85299 4.9 7.86282 4.9 7.87265 4.9C7.88248 4.9 7.8923 4.9 7.90213 4.9C7.91195 4.9 7.92177 4.9 7.9316 4.9C7.94142 4.9 7.95124 4.9 7.96106 4.9C7.97087 4.9 7.98069 4.9 7.9905 4.9C8.00032 4.9 8.01013 4.9 8.01994 4.9C8.02975 4.9 8.03956 4.9 8.04937 4.9C8.05918 4.9 8.06899 4.9 8.07879 4.9C8.08859 4.9 8.0984 4.9 8.1082 4.9C8.118 4.9 8.1278 4.9 8.1376 4.9C8.1474 4.9 8.15719 4.9 8.16699 4.9C8.17678 4.9 8.18657 4.9 8.19637 4.9C8.20616 4.9 8.21595 4.9 8.22574 4.9C8.23552 4.9 8.24531 4.9 8.2551 4.9C8.26488 4.9 8.27466 4.9 8.28445 4.9C8.29423 4.9 8.30401 4.9 8.31379 4.9C8.32357 4.9 8.33334 4.9 8.34312 4.9C8.35289 4.9 8.36267 4.9 8.37244 4.9C8.38221 4.9 8.39198 4.9 8.40175 4.9C8.41152 4.9 8.42129 4.9 8.43106 4.9C8.44083 4.9 8.45059 4.9 8.46035 4.9C8.47012 4.9 8.47988 4.9 8.48964 4.9C8.4994 4.9 8.50916 4.9 8.51892 4.9C8.52867 4.9 8.53843 4.9 8.54819 4.9C8.55794 4.9 8.56769 4.9 8.57744 4.9C8.5872 4.9 8.59695 4.9 8.6067 4.9C8.61644 4.9 8.62619 4.9 8.63594 4.9C8.64568 4.9 8.65543 4.9 8.66517 4.9C8.67491 4.9 8.68466 4.9 8.6944 4.9C8.70414 4.9 8.71388 4.9 8.72361 4.9C8.73335 4.9 8.74309 4.9 8.75282 4.9C8.76256 4.9 8.77229 4.9 8.78202 4.9C8.79175 4.9 8.80149 4.9 8.81121 4.9C8.82094 4.9 8.83067 4.9 8.8404 4.9C8.85013 4.9 8.85985 4.9 8.86957 4.9C8.8793 4.9 8.88902 4.9 8.89874 4.9C8.90846 4.9 8.91818 4.9 8.9279 4.9C8.93762 4.9 8.94734 4.9 8.95706 4.9C8.96677 4.9 8.97649 4.9 8.9862 4.9C8.99591 4.9 9.00563 4.9 9.01534 4.9C9.02505 4.9 9.03476 4.9 9.04447 4.9C9.05417 4.9 9.06388 4.9 9.07359 4.9C9.08329 4.9 9.093 4.9 9.1027 4.9C9.11241 4.9 9.12211 4.9 9.13181 4.9C9.14151 4.9 9.15121 4.9 9.16091 4.9C9.17061 4.9 9.18031 4.9 9.19 4.9C9.1997 4.9 9.20939 4.9 9.21909 4.9C9.22878 4.9 9.23847 4.9 9.24817 4.9C9.25786 4.9 9.26755 4.9 9.27724 4.9C9.28693 4.9 9.29661 4.9 9.3063 4.9C9.31599 4.9 9.32567 4.9 9.33536 4.9C9.34504 4.9 9.35473 4.9 9.36441 4.9C9.37409 4.9 9.38377 4.9 9.39345 4.9C9.40313 4.9 9.41281 4.9 9.42249 4.9C9.43217 4.9 9.44184 4.9 9.45152 4.9C9.4612 4.9 9.47087 4.9 9.48055 4.9C9.49022 4.9 9.49989 4.9 9.50956 4.9C9.51923 4.9 9.52891 4.9 9.53857 4.9C9.54824 4.9 9.55791 4.9 9.56758 4.9C9.57725 4.9 9.58691 4.9 9.59658 4.9C9.60624 4.9 9.61591 4.9 9.62557 4.9C9.63524 4.9 9.6449 4.9 9.65456 4.9C9.66422 4.9 9.67388 4.9 9.68354 4.9C9.6932 4.9 9.70286 4.9 9.71251 4.9C9.72217 4.9 9.73183 4.9 9.74148 4.9C9.75114 4.9 9.76079 4.9 9.77045 4.9C9.7801 4.9 9.78975 4.9 9.79941 4.9C9.80906 4.9 9.81871 4.9 9.82836 4.9C9.83801 4.9 9.84766 4.9 9.8573 4.9C9.86695 4.9 9.8766 4.9 9.88624 4.9C9.89589 4.9 9.90554 4.9 9.91518 4.9C9.92483 4.9 9.93447 4.9 9.94411 4.9C9.95375 4.9 9.9634 4.9 9.97304 4.9C9.98268 4.9 9.99232 4.9 10.002 4.9C10.0116 4.9 10.0212 4.9 10.0309 4.9C10.0405 4.9 10.0501 4.9 10.0598 4.9C10.0694 4.9 10.0791 4.9 10.0887 4.9C10.0983 4.9 10.108 4.9 10.1176 4.9C10.1272 4.9 10.1369 4.9 10.1465 4.9C10.1561 4.9 10.1657 4.9 10.1754 4.9C10.185 4.9 10.1946 4.9 10.2043 4.9C10.2139 4.9 10.2235 4.9 10.2331 4.9C10.2428 4.9 10.2524 4.9 10.262 4.9C10.2716 4.9 10.2813 4.9 10.2909 4.9C10.3005 4.9 10.3101 4.9 10.3198 4.9C10.3294 4.9 10.339 4.9 10.3486 4.9C10.3582 4.9 10.3679 4.9 10.3775 4.9C10.3871 4.9 10.3967 4.9 10.4063 4.9C10.416 4.9 10.4256 4.9 10.4352 4.9C10.4448 4.9 10.4544 4.9 10.464 4.9C10.4736 4.9 10.4833 4.9 10.4929 4.9C10.5025 4.9 10.5121 4.9 10.5217 4.9C10.5313 4.9 10.5409 4.9 10.5506 4.9C10.5602 4.9 10.5698 4.9 10.5794 4.9C10.589 4.9 10.5986 4.9 10.6082 4.9C10.6178 4.9 10.6274 4.9 10.637 4.9C10.6466 4.9 10.6563 4.9 10.6659 4.9C10.6755 4.9 10.6851 4.9 10.6947 4.9C10.7043 4.9 10.7139 4.9 10.7235 4.9C10.7331 4.9 10.7427 4.9 10.7523 4.9C10.7619 4.9 10.7715 4.9 10.7811 4.9C10.7907 4.9 10.8003 4.9 10.8099 4.9C10.8195 4.9 10.8291 4.9 10.8387 4.9C10.8483 4.9 10.8579 4.9 10.8675 4.9C10.8771 4.9 10.8867 4.9 10.8963 4.9C10.9059 4.9 10.9155 4.9 10.9251 4.9C10.9347 4.9 10.9443 4.9 10.9539 4.9C10.9635 4.9 10.9731 4.9 10.9827 4.9C10.9923 4.9 11.0019 4.9 11.0115 4.9C11.0211 4.9 11.0307 4.9 11.0403 4.9C11.0498 4.9 11.0594 4.9 11.069 4.9C11.0786 4.9 11.0882 4.9 11.0978 4.9C11.1074 4.9 11.117 4.9 11.1266 4.9C11.1362 4.9 11.1458 4.9 11.1554 4.9C11.165 4.9 11.1745 4.9 11.1841 4.9C11.1937 4.9 11.2033 4.9 11.2129 4.9C11.2225 4.9 11.2321 4.9 11.2417 4.9C11.2513 4.9 11.2608 4.9 11.2704 4.9C11.28 4.9 11.2896 4.9 11.2992 4.9C11.3088 4.9 11.3184 4.9 11.328 4.9C11.3375 4.9 11.3471 4.9 11.3567 4.9C11.3663 4.9 11.3759 4.9 11.3855 4.9C11.3951 4.9 11.4047 4.9 11.4142 4.9C11.4238 4.9 11.4334 4.9 11.443 4.9C11.4526 4.9 11.4622 4.9 11.4717 4.9C11.4813 4.9 11.4909 4.9 11.5005 4.9C11.5101 4.9 11.5197 4.9 11.5293 4.9C11.5388 4.9 11.5484 4.9 11.558 4.9C11.5676 4.9 11.5772 4.9 11.5867 4.9C11.5963 4.9 11.6059 4.9 11.6155 4.9C11.6251 4.9 11.6347 4.9 11.6442 4.9C11.6538 4.9 11.6634 4.9 11.673 4.9C11.6826 4.9 11.6922 4.9 11.7017 4.9C11.7113 4.9 11.7209 4.9 11.7305 4.9C11.7401 4.9 11.7496 4.9 11.7592 4.9C11.7688 4.9 11.7784 4.9 11.788 4.9C11.7975 4.9 11.8071 4.9 11.8167 4.9C11.8263 4.9 11.8359 4.9 11.8455 4.9C11.855 4.9 11.8646 4.9 11.8742 4.9C11.8838 4.9 11.8934 4.9 11.9029 4.9C11.9125 4.9 11.9221 4.9 11.9317 4.9C11.9413 4.9 11.9508 4.9 11.9604 4.9C11.97 4.9 11.9796 4.9 11.9892 4.9C11.9987 4.9 12.0083 4.9 12.0179 4.9C12.0275 4.9 12.0371 4.9 12.0466 4.9C12.0562 4.9 12.0658 4.9 12.0754 4.9C12.085 4.9 12.0945 4.9 12.1041 4.9C12.1137 4.9 12.1233 4.9 12.1329 4.9C12.1424 4.9 12.152 4.9 12.1616 4.9C12.1712 4.9 12.1808 4.9 12.1903 4.9C12.1999 4.9 12.2095 4.9 12.2191 4.9C12.2287 4.9 12.2383 4.9 12.2478 4.9C12.2574 4.9 12.267 4.9 12.2766 4.9C12.2862 4.9 12.2957 4.9 12.3053 4.9C12.3149 4.9 12.3245 4.9 12.3341 4.9C12.3436 4.9 12.3532 4.9 12.3628 4.9C12.3724 4.9 12.382 4.9 12.3916 4.9C12.4011 4.9 12.4107 4.9 12.4203 4.9C12.4299 4.9 12.4395 4.9 12.4491 4.9C12.4586 4.9 12.4682 4.9 12.4778 4.9C12.4874 4.9 12.497 4.9 12.5066 4.9C12.5161 4.9 12.5257 4.9 12.5353 4.9C12.5449 4.9 12.5545 4.9 12.5641 4.9C12.5737 4.9 12.5832 4.9 12.5928 4.9C12.6024 4.9 12.612 4.9 12.6216 4.9C12.6312 4.9 12.6408 4.9 12.6503 4.9C12.6599 4.9 12.6695 4.9 12.6791 4.9C12.6887 4.9 12.6983 4.9 12.7079 4.9C12.7174 4.9 12.727 4.9 12.7366 4.9C12.7462 4.9 12.7558 4.9 12.7654 4.9C12.775 4.9 12.7846 4.9 12.7942 4.9C12.8037 4.9 12.8133 4.9 12.8229 4.9C12.8325 4.9 12.8421 4.9 12.8517 4.9C12.8613 4.9 12.8709 4.9 12.8805 4.9C12.8901 4.9 12.8997 4.9 12.9092 4.9C12.9188 4.9 12.9284 4.9 12.938 4.9C12.9476 4.9 12.9572 4.9 12.9668 4.9C12.9764 4.9 12.986 4.9 12.9956 4.9C13.0052 4.9 13.0148 4.9 13.0244 4.9C13.034 4.9 13.0436 4.9 13.0532 4.9C13.0628 4.9 13.0724 4.9 13.082 4.9C13.0916 4.9 13.1012 4.9 13.1108 4.9C13.1204 4.9 13.13 4.9 13.1395 4.9C13.1491 4.9 13.1587 4.9 13.1683 4.9C13.1779 4.9 13.1876 4.9 13.1972 4.9C13.2068 4.9 13.2164 4.9 13.226 4.9C13.2356 4.9 13.2452 4.9 13.2548 4.9C13.2644 4.9 13.274 4.9 13.2836 4.9C13.2932 4.9 13.3028 4.9 13.3124 4.9C13.322 4.9 13.3316 4.9 13.3412 4.9C13.3508 4.9 13.3604 4.9 13.37 4.9C13.3796 4.9 13.3893 4.9 13.3989 4.9C13.4085 4.9 13.4181 4.9 13.4277 4.9C13.4373 4.9 13.4469 4.9 13.4565 4.9C13.4661 4.9 13.4757 4.9 13.4854 4.9C13.495 4.9 13.5046 4.9 13.5142 4.9C13.5238 4.9 13.5334 4.9 13.543 4.9C13.5527 4.9 13.5623 4.9 13.5719 4.9C13.5815 4.9 13.5911 4.9 13.6007 4.9C13.6104 4.9 13.62 4.9 13.6296 4.9C13.6392 4.9 13.6488 4.9 13.6585 4.9C13.6681 4.9 13.6777 4.9 13.6873 4.9C13.697 4.9 13.7066 4.9 13.7162 4.9C13.7258 4.9 13.7354 4.9 13.7451 4.9C13.7547 4.9 13.7643 4.9 13.7739 4.9C13.7836 4.9 13.7932 4.9 13.8028 4.9C13.8125 4.9 13.8221 4.9 13.8317 4.9C13.8413 4.9 13.851 4.9 13.8606 4.9C13.8702 4.9 13.8799 4.9 13.8895 4.9C13.8991 4.9 13.9088 4.9 13.9184 4.9C13.928 4.9 13.9377 4.9 13.9473 4.9C13.957 4.9 13.9666 4.9 13.9762 4.9C13.9859 4.9 13.9955 4.9 14.0051 4.9C14.0148 4.9 14.0244 4.9 14.0341 4.9C14.0437 4.9 14.0533 4.9 14.063 4.9C14.0726 4.9 14.0823 4.9 14.0919 4.9C14.1016 4.9 14.1112 4.9 14.1209 4.9C14.1305 4.9 14.1402 4.9 14.1498 4.9C14.1594 4.9 14.1691 4.9 14.1787 4.9C14.1884 4.9 14.1981 4.9 14.2077 4.9C14.2174 4.9 14.227 4.9 14.2367 4.9C14.2463 4.9 14.256 4.9 14.2656 4.9C14.2753 4.9 14.2849 4.9 14.2946 4.9C14.3043 4.9 14.3139 4.9 14.3236 4.9C14.3332 4.9 14.3429 4.9 14.3526 4.9C14.3622 4.9 14.3719 4.9 14.3815 4.9C14.3912 4.9 14.4009 4.9 14.4105 4.9C14.4202 4.9 14.4299 4.9 14.4395 4.9C14.4492 4.9 14.4589 4.9 14.4685 4.9C14.4782 4.9 14.4879 4.9 14.4976 4.9C14.5072 4.9 14.5169 4.9 14.5266 4.9C14.5363 4.9 14.5459 4.9 14.5556 4.9C14.5653 4.9 14.575 4.9 14.5846 4.9C14.5943 4.9 14.604 4.9 14.6137 4.9C14.6234 4.9 14.633 4.9 14.6427 4.9C14.6524 4.9 14.6621 4.9 14.6718 4.9C14.6815 4.9 14.6911 4.9 14.7008 4.9C14.7105 4.9 14.7202 4.9 14.7299 4.9C14.7396 4.9 14.7493 4.9 14.759 4.9C14.7687 4.9 14.7784 4.9 14.7881 4.9C14.7977 4.9 14.8074 4.9 14.8171 4.9C14.8268 4.9 14.8365 4.9 14.8462 4.9C14.8559 4.9 14.8656 4.9 14.8753 4.9C14.885 4.9 14.8947 4.9 14.9044 4.9C14.9141 4.9 14.9239 4.9 14.9336 4.9C14.9433 4.9 14.953 4.9 14.9627 4.9C14.9724 4.9 14.9821 4.9 14.9918 4.9C15.0015 4.9 15.0112 4.9 15.021 4.9C15.0307 4.9 15.0404 4.9 15.0501 4.9C15.0598 4.9 15.0695 4.9 15.0793 4.9C15.089 4.9 15.0987 4.9 15.1084 4.9C15.1181 4.9 15.1279 4.9 15.1376 4.9C15.1473 4.9 15.157 4.9 15.1668 4.9C15.1765 4.9 15.1862 4.9 15.1959 4.9C15.2057 4.9 15.2154 4.9 15.2251 4.9C15.2349 4.9 15.2446 4.9 15.2543 4.9C15.2641 4.9 15.2738 4.9 15.2836 4.9C15.2933 4.9 15.303 4.9 15.3128 4.9C15.3225 4.9 15.3323 4.9 15.342 4.9C15.3517 4.9 15.3615 4.9 15.3712 4.9C15.381 4.9 15.3907 4.9 15.4005 4.9C15.4102 4.9 15.42 4.9 15.4297 4.9C15.4395 4.9 15.4492 4.9 15.459 4.9C15.4688 4.9 15.4785 4.9 15.4883 4.9C15.498 4.9 15.5078 4.9 15.5175 4.9C15.5273 4.9 15.5371 4.9 15.5468 4.9C15.5566 4.9 15.5664 4.9 15.5761 4.9C15.5859 4.9 15.5957 4.9 15.6054 4.9C15.6152 4.9 15.625 4.9 15.6348 4.9C15.6445 4.9 15.6543 4.9 15.6641 4.9C15.6739 4.9 15.6836 4.9 15.6934 4.9C15.7032 4.9 15.713 4.9 15.7228 4.9C15.7325 4.9 15.7423 4.9 15.7521 4.9C15.7619 4.9 15.7717 4.9 15.7815 4.9C15.7913 4.9 15.8011 4.9 15.8108 4.9C15.8206 4.9 15.8304 4.9 15.8402 4.9C15.85 4.9 15.8598 4.9 15.8696 4.9C15.8794 4.9 15.8892 4.9 15.899 4.9C15.9088 4.9 15.9186 4.9 15.9284 4.9C15.9382 4.9 15.948 4.9 15.9579 4.9C15.9677 4.9 15.9775 4.9 15.9873 4.9C15.9971 4.9 16.0069 4.9 16.0167 4.9C16.0265 4.9 16.0364 4.9 16.0462 4.9C16.056 4.9 16.0658 4.9 16.0756 4.9C16.0855 4.9 16.0953 4.9 16.1051 4.9C16.1149 4.9 16.1248 4.9 16.1346 4.9C16.1444 4.9 16.1543 4.9 16.1641 4.9C16.1739 4.9 16.1838 4.9 16.1936 4.9C16.2034 4.9 16.2133 4.9 16.2231 4.9C16.2329 4.9 16.2428 4.9 16.2526 4.9C16.2625 4.9 16.2723 4.9 16.2822 4.9C16.292 4.9 16.3019 4.9 16.3117 4.9C16.3216 4.9 16.3314 4.9 16.3413 4.9C16.3511 4.9 16.361 4.9 16.3708 4.9C16.3807 4.9 16.3905 4.9 16.4004 4.9C16.4103 4.9 16.4201 4.9 16.43 4.9C16.4399 4.9 16.4497 4.9 16.4596 4.9C16.4695 4.9 16.4793 4.9 16.4892 4.9C16.4991 4.9 16.509 4.9 16.5188 4.9C16.5287 4.9 16.5386 4.9 16.5485 4.9C16.5584 4.9 16.5682 4.9 16.5781 4.9C16.588 4.9 16.5979 4.9 16.6078 4.9C16.6177 4.9 16.6276 4.9 16.6375 4.9C16.6473 4.9 16.6572 4.9 16.6671 4.9C16.677 4.9 16.6869 4.9 16.6968 4.9C16.7067 4.9 16.7166 4.9 16.7265 4.9C16.7364 4.9 16.7463 4.9 16.7563 4.9C16.7662 4.9 16.7761 4.9 16.786 4.9C16.7959 4.9 16.8058 4.9 16.8157 4.9C16.8256 4.9 16.8356 4.9 16.8455 4.9C16.8554 4.9 16.8653 4.9 16.8752 4.9C16.8852 4.9 16.8951 4.9 16.905 4.9C16.9149 4.9 16.9249 4.9 16.9348 4.9C16.9447 4.9 16.9547 4.9 16.9646 4.9C16.9746 4.9 16.9845 4.9 16.9944 4.9C17.0044 4.9 17.0143 4.9 17.0243 4.9C17.0342 4.9 17.0442 4.9 17.0541 4.9C17.064 4.9 17.074 4.9 17.084 4.9C17.0939 4.9 17.1039 4.9 17.1138 4.9C17.1238 4.9 17.1337 4.9 17.1437 4.9C17.1537 4.9 17.1636 4.9 17.1736 4.9C17.1836 4.9 17.1935 4.9 17.2035 4.9C17.2135 4.9 17.2234 4.9 17.2334 4.9C17.2434 4.9 17.2534 4.9 17.2633 4.9C17.2733 4.9 17.2833 4.9 17.2933 4.9C17.3033 4.9 17.3133 4.9 17.3233 4.9C17.3332 4.9 17.3432 4.9 17.3532 4.9C17.3632 4.9 17.3732 4.9 17.3832 4.9C17.3932 4.9 17.4032 4.9 17.4132 4.9C17.4232 4.9 17.4332 4.9 17.4432 4.9C17.4532 4.9 17.4632 4.9 17.4732 4.9C17.4833 4.9 17.4933 4.9 17.5033 4.9C17.5133 4.9 17.5233 4.9 17.5333 4.9C17.5434 4.9 17.5534 4.9 17.5634 4.9C17.5734 4.9 17.5835 4.9 17.5935 4.9C17.6035 4.9 17.6136 4.9 17.6236 4.9C17.6336 4.9 17.6437 4.9 17.6537 4.9C17.6637 4.9 17.6738 4.9 17.6838 4.9C17.6939 4.9 17.7039 4.9 17.714 4.9C17.724 4.9 17.7341 4.9 17.7441 4.9C17.7542 4.9 17.7642 4.9 17.7743 4.9C17.7843 4.9 17.7944 4.9 17.8045 4.9C17.8145 4.9 17.8246 4.9 17.8347 4.9C17.8447 4.9 17.8548 4.9 17.8649 4.9C17.8749 4.9 17.885 4.9 17.8951 4.9C17.9052 4.9 17.9153 4.9 17.9253 4.9C17.9354 4.9 17.9455 4.9 17.9556 4.9C17.9657 4.9 17.9758 4.9 17.9859 4.9C17.996 4.9 18.006 4.9 18.0161 4.9C18.0262 4.9 18.0363 4.9 18.0464 4.9C18.0565 4.9 18.0667 4.9 18.0768 4.9C18.0869 4.9 18.097 4.9 18.1071 4.9C18.1172 4.9 18.1273 4.9 18.1374 4.9C18.1476 4.9 18.1577 4.9 18.1678 4.9C18.1779 4.9 18.1881 4.9 18.1982 4.9C18.2083 4.9 18.2184 4.9 18.2286 4.9C18.2387 4.9 18.2488 4.9 18.259 4.9C18.2691 4.9 18.2793 4.9 18.2894 4.9C18.2995 4.9 18.3097 4.9 18.3198 4.9C18.33 4.9 18.3401 4.9 18.3503 4.9C18.3605 4.9 18.3706 4.9 18.3808 4.9C18.3909 4.9 18.4011 4.9 18.4113 4.9C18.4214 4.9 18.4316 4.9 18.4418 4.9C18.4519 4.9 18.4621 4.9 18.4723 4.9C18.4825 4.9 18.4926 4.9 18.5028 4.9C18.513 4.9 18.5232 4.9 18.5334 4.9C18.5436 4.9 18.5537 4.9 18.5639 4.9C18.5741 4.9 18.5843 4.9 18.5945 4.9C18.6047 4.9 18.6149 4.9 18.6251 4.9C18.6353 4.9 18.6455 4.9 18.6557 4.9C18.666 4.9 18.6762 4.9 18.6864 4.9C18.6966 4.9 18.7068 4.9 18.717 4.9C18.7272 4.9 18.7375 4.9 18.7477 4.9C18.7579 4.9 18.7681 4.9 18.7784 4.9C18.7886 4.9 18.7988 4.9 18.8091 4.9C18.8193 4.9 18.8296 4.9 18.8398 4.9C18.85 4.9 18.8603 4.9 18.8705 4.9C18.8808 4.9 18.891 4.9 18.9013 4.9C18.9115 4.9 18.9218 4.9 18.9321 4.9C18.9423 4.9 18.9526 4.9 18.9628 4.9C18.9731 4.9 18.9834 4.9 18.9937 4.9C19.0039 4.9 19.0142 4.9 19.0245 4.9C19.0348 4.9 19.045 4.9 19.0553 4.9C19.0656 4.9 19.0759 4.9 19.0862 4.9C19.0965 4.9 19.1068 4.9 19.117 4.9C19.1273 4.9 19.1376 4.9 19.1479 4.9C19.1582 4.9 19.1685 4.9 19.1789 4.9C19.1892 4.9 19.1995 4.9 19.2098 4.9C19.2201 4.9 19.2304 4.9 19.2407 4.9C19.251 4.9 19.2614 4.9 19.2717 4.9C19.282 4.9 19.2923 4.9 19.3027 4.9C19.313 4.9 19.3233 4.9 19.3337 4.9C19.344 4.9 19.3544 4.9 19.3647 4.9C19.375 4.9 19.3854 4.9 19.3957 4.9C19.4061 4.9 19.4164 4.9 19.4268 4.9C19.4371 4.9 19.4475 4.9 19.4579 4.9C19.4682 4.9 19.4786 4.9 19.489 4.9C19.4993 4.9 19.5097 4.9 19.5201 4.9C19.5304 4.9 19.5408 4.9 19.5512 4.9C19.5616 4.9 19.572 4.9 19.5823 4.9C19.5927 4.9 19.6031 4.9 19.6135 4.9C19.6239 4.9 19.6343 4.9 19.6447 4.9C19.6551 4.9 19.6655 4.9 19.6759 4.9C19.6863 4.9 19.6967 4.9 19.7071 4.9C19.7175 4.9 19.728 4.9 19.7384 4.9C19.7488 4.9 19.7592 4.9 19.7696 4.9C19.7801 4.9 19.7905 4.9 19.8009 4.9C19.8114 4.9 19.8218 4.9 19.8322 4.9C19.8427 4.9 19.8531 4.9 19.8635 4.9C19.874 4.9 19.8844 4.9 19.8949 4.9C19.9053 4.9 19.9158 4.9 19.9262 4.9C19.9367 4.9 19.9472 4.9 19.9576 4.9V4V3.1C19.9472 3.1 19.9367 3.1 19.9262 3.1C19.9158 3.1 19.9053 3.1 19.8949 3.1C19.8844 3.1 19.874 3.1 19.8635 3.1C19.8531 3.1 19.8427 3.1 19.8322 3.1C19.8218 3.1 19.8114 3.1 19.8009 3.1C19.7905 3.1 19.7801 3.1 19.7696 3.1C19.7592 3.1 19.7488 3.1 19.7384 3.1C19.728 3.1 19.7175 3.1 19.7071 3.1C19.6967 3.1 19.6863 3.1 19.6759 3.1C19.6655 3.1 19.6551 3.1 19.6447 3.1C19.6343 3.1 19.6239 3.1 19.6135 3.1C19.6031 3.1 19.5927 3.1 19.5823 3.1C19.572 3.1 19.5616 3.1 19.5512 3.1C19.5408 3.1 19.5304 3.1 19.5201 3.1C19.5097 3.1 19.4993 3.1 19.489 3.1C19.4786 3.1 19.4682 3.1 19.4579 3.1C19.4475 3.1 19.4371 3.1 19.4268 3.1C19.4164 3.1 19.4061 3.1 19.3957 3.1C19.3854 3.1 19.375 3.1 19.3647 3.1C19.3544 3.1 19.344 3.1 19.3337 3.1C19.3233 3.1 19.313 3.1 19.3027 3.1C19.2923 3.1 19.282 3.1 19.2717 3.1C19.2614 3.1 19.251 3.1 19.2407 3.1C19.2304 3.1 19.2201 3.1 19.2098 3.1C19.1995 3.1 19.1892 3.1 19.1789 3.1C19.1685 3.1 19.1582 3.1 19.1479 3.1C19.1376 3.1 19.1273 3.1 19.117 3.1C19.1068 3.1 19.0965 3.1 19.0862 3.1C19.0759 3.1 19.0656 3.1 19.0553 3.1C19.045 3.1 19.0348 3.1 19.0245 3.1C19.0142 3.1 19.0039 3.1 18.9937 3.1C18.9834 3.1 18.9731 3.1 18.9628 3.1C18.9526 3.1 18.9423 3.1 18.9321 3.1C18.9218 3.1 18.9115 3.1 18.9013 3.1C18.891 3.1 18.8808 3.1 18.8705 3.1C18.8603 3.1 18.85 3.1 18.8398 3.1C18.8296 3.1 18.8193 3.1 18.8091 3.1C18.7988 3.1 18.7886 3.1 18.7784 3.1C18.7681 3.1 18.7579 3.1 18.7477 3.1C18.7375 3.1 18.7272 3.1 18.717 3.1C18.7068 3.1 18.6966 3.1 18.6864 3.1C18.6762 3.1 18.666 3.1 18.6557 3.1C18.6455 3.1 18.6353 3.1 18.6251 3.1C18.6149 3.1 18.6047 3.1 18.5945 3.1C18.5843 3.1 18.5741 3.1 18.5639 3.1C18.5537 3.1 18.5436 3.1 18.5334 3.1C18.5232 3.1 18.513 3.1 18.5028 3.1C18.4926 3.1 18.4825 3.1 18.4723 3.1C18.4621 3.1 18.4519 3.1 18.4418 3.1C18.4316 3.1 18.4214 3.1 18.4113 3.1C18.4011 3.1 18.3909 3.1 18.3808 3.1C18.3706 3.1 18.3605 3.1 18.3503 3.1C18.3401 3.1 18.33 3.1 18.3198 3.1C18.3097 3.1 18.2995 3.1 18.2894 3.1C18.2793 3.1 18.2691 3.1 18.259 3.1C18.2488 3.1 18.2387 3.1 18.2286 3.1C18.2184 3.1 18.2083 3.1 18.1982 3.1C18.1881 3.1 18.1779 3.1 18.1678 3.1C18.1577 3.1 18.1476 3.1 18.1374 3.1C18.1273 3.1 18.1172 3.1 18.1071 3.1C18.097 3.1 18.0869 3.1 18.0768 3.1C18.0667 3.1 18.0565 3.1 18.0464 3.1C18.0363 3.1 18.0262 3.1 18.0161 3.1C18.006 3.1 17.996 3.1 17.9859 3.1C17.9758 3.1 17.9657 3.1 17.9556 3.1C17.9455 3.1 17.9354 3.1 17.9253 3.1C17.9153 3.1 17.9052 3.1 17.8951 3.1C17.885 3.1 17.8749 3.1 17.8649 3.1C17.8548 3.1 17.8447 3.1 17.8347 3.1C17.8246 3.1 17.8145 3.1 17.8045 3.1C17.7944 3.1 17.7843 3.1 17.7743 3.1C17.7642 3.1 17.7542 3.1 17.7441 3.1C17.7341 3.1 17.724 3.1 17.714 3.1C17.7039 3.1 17.6939 3.1 17.6838 3.1C17.6738 3.1 17.6637 3.1 17.6537 3.1C17.6437 3.1 17.6336 3.1 17.6236 3.1C17.6136 3.1 17.6035 3.1 17.5935 3.1C17.5835 3.1 17.5734 3.1 17.5634 3.1C17.5534 3.1 17.5434 3.1 17.5333 3.1C17.5233 3.1 17.5133 3.1 17.5033 3.1C17.4933 3.1 17.4833 3.1 17.4732 3.1C17.4632 3.1 17.4532 3.1 17.4432 3.1C17.4332 3.1 17.4232 3.1 17.4132 3.1C17.4032 3.1 17.3932 3.1 17.3832 3.1C17.3732 3.1 17.3632 3.1 17.3532 3.1C17.3432 3.1 17.3332 3.1 17.3233 3.1C17.3133 3.1 17.3033 3.1 17.2933 3.1C17.2833 3.1 17.2733 3.1 17.2633 3.1C17.2534 3.1 17.2434 3.1 17.2334 3.1C17.2234 3.1 17.2135 3.1 17.2035 3.1C17.1935 3.1 17.1836 3.1 17.1736 3.1C17.1636 3.1 17.1537 3.1 17.1437 3.1C17.1337 3.1 17.1238 3.1 17.1138 3.1C17.1039 3.1 17.0939 3.1 17.084 3.1C17.074 3.1 17.064 3.1 17.0541 3.1C17.0442 3.1 17.0342 3.1 17.0243 3.1C17.0143 3.1 17.0044 3.1 16.9944 3.1C16.9845 3.1 16.9746 3.1 16.9646 3.1C16.9547 3.1 16.9447 3.1 16.9348 3.1C16.9249 3.1 16.9149 3.1 16.905 3.1C16.8951 3.1 16.8852 3.1 16.8752 3.1C16.8653 3.1 16.8554 3.1 16.8455 3.1C16.8356 3.1 16.8256 3.1 16.8157 3.1C16.8058 3.1 16.7959 3.1 16.786 3.1C16.7761 3.1 16.7662 3.1 16.7563 3.1C16.7463 3.1 16.7364 3.1 16.7265 3.1C16.7166 3.1 16.7067 3.1 16.6968 3.1C16.6869 3.1 16.677 3.1 16.6671 3.1C16.6572 3.1 16.6473 3.1 16.6375 3.1C16.6276 3.1 16.6177 3.1 16.6078 3.1C16.5979 3.1 16.588 3.1 16.5781 3.1C16.5682 3.1 16.5584 3.1 16.5485 3.1C16.5386 3.1 16.5287 3.1 16.5188 3.1C16.509 3.1 16.4991 3.1 16.4892 3.1C16.4793 3.1 16.4695 3.1 16.4596 3.1C16.4497 3.1 16.4399 3.1 16.43 3.1C16.4201 3.1 16.4103 3.1 16.4004 3.1C16.3905 3.1 16.3807 3.1 16.3708 3.1C16.361 3.1 16.3511 3.1 16.3413 3.1C16.3314 3.1 16.3216 3.1 16.3117 3.1C16.3019 3.1 16.292 3.1 16.2822 3.1C16.2723 3.1 16.2625 3.1 16.2526 3.1C16.2428 3.1 16.2329 3.1 16.2231 3.1C16.2133 3.1 16.2034 3.1 16.1936 3.1C16.1838 3.1 16.1739 3.1 16.1641 3.1C16.1543 3.1 16.1444 3.1 16.1346 3.1C16.1248 3.1 16.1149 3.1 16.1051 3.1C16.0953 3.1 16.0855 3.1 16.0756 3.1C16.0658 3.1 16.056 3.1 16.0462 3.1C16.0364 3.1 16.0265 3.1 16.0167 3.1C16.0069 3.1 15.9971 3.1 15.9873 3.1C15.9775 3.1 15.9677 3.1 15.9579 3.1C15.948 3.1 15.9382 3.1 15.9284 3.1C15.9186 3.1 15.9088 3.1 15.899 3.1C15.8892 3.1 15.8794 3.1 15.8696 3.1C15.8598 3.1 15.85 3.1 15.8402 3.1C15.8304 3.1 15.8206 3.1 15.8108 3.1C15.8011 3.1 15.7913 3.1 15.7815 3.1C15.7717 3.1 15.7619 3.1 15.7521 3.1C15.7423 3.1 15.7325 3.1 15.7228 3.1C15.713 3.1 15.7032 3.1 15.6934 3.1C15.6836 3.1 15.6739 3.1 15.6641 3.1C15.6543 3.1 15.6445 3.1 15.6348 3.1C15.625 3.1 15.6152 3.1 15.6054 3.1C15.5957 3.1 15.5859 3.1 15.5761 3.1C15.5664 3.1 15.5566 3.1 15.5468 3.1C15.5371 3.1 15.5273 3.1 15.5175 3.1C15.5078 3.1 15.498 3.1 15.4883 3.1C15.4785 3.1 15.4688 3.1 15.459 3.1C15.4492 3.1 15.4395 3.1 15.4297 3.1C15.42 3.1 15.4102 3.1 15.4005 3.1C15.3907 3.1 15.381 3.1 15.3712 3.1C15.3615 3.1 15.3517 3.1 15.342 3.1C15.3323 3.1 15.3225 3.1 15.3128 3.1C15.303 3.1 15.2933 3.1 15.2836 3.1C15.2738 3.1 15.2641 3.1 15.2543 3.1C15.2446 3.1 15.2349 3.1 15.2251 3.1C15.2154 3.1 15.2057 3.1 15.1959 3.1C15.1862 3.1 15.1765 3.1 15.1668 3.1C15.157 3.1 15.1473 3.1 15.1376 3.1C15.1279 3.1 15.1181 3.1 15.1084 3.1C15.0987 3.1 15.089 3.1 15.0793 3.1C15.0695 3.1 15.0598 3.1 15.0501 3.1C15.0404 3.1 15.0307 3.1 15.021 3.1C15.0112 3.1 15.0015 3.1 14.9918 3.1C14.9821 3.1 14.9724 3.1 14.9627 3.1C14.953 3.1 14.9433 3.1 14.9336 3.1C14.9239 3.1 14.9141 3.1 14.9044 3.1C14.8947 3.1 14.885 3.1 14.8753 3.1C14.8656 3.1 14.8559 3.1 14.8462 3.1C14.8365 3.1 14.8268 3.1 14.8171 3.1C14.8074 3.1 14.7977 3.1 14.7881 3.1C14.7784 3.1 14.7687 3.1 14.759 3.1C14.7493 3.1 14.7396 3.1 14.7299 3.1C14.7202 3.1 14.7105 3.1 14.7008 3.1C14.6911 3.1 14.6815 3.1 14.6718 3.1C14.6621 3.1 14.6524 3.1 14.6427 3.1C14.633 3.1 14.6234 3.1 14.6137 3.1C14.604 3.1 14.5943 3.1 14.5846 3.1C14.575 3.1 14.5653 3.1 14.5556 3.1C14.5459 3.1 14.5363 3.1 14.5266 3.1C14.5169 3.1 14.5072 3.1 14.4976 3.1C14.4879 3.1 14.4782 3.1 14.4685 3.1C14.4589 3.1 14.4492 3.1 14.4395 3.1C14.4299 3.1 14.4202 3.1 14.4105 3.1C14.4009 3.1 14.3912 3.1 14.3815 3.1C14.3719 3.1 14.3622 3.1 14.3526 3.1C14.3429 3.1 14.3332 3.1 14.3236 3.1C14.3139 3.1 14.3043 3.1 14.2946 3.1C14.2849 3.1 14.2753 3.1 14.2656 3.1C14.256 3.1 14.2463 3.1 14.2367 3.1C14.227 3.1 14.2174 3.1 14.2077 3.1C14.1981 3.1 14.1884 3.1 14.1787 3.1C14.1691 3.1 14.1594 3.1 14.1498 3.1C14.1402 3.1 14.1305 3.1 14.1209 3.1C14.1112 3.1 14.1016 3.1 14.0919 3.1C14.0823 3.1 14.0726 3.1 14.063 3.1C14.0533 3.1 14.0437 3.1 14.0341 3.1C14.0244 3.1 14.0148 3.1 14.0051 3.1C13.9955 3.1 13.9859 3.1 13.9762 3.1C13.9666 3.1 13.957 3.1 13.9473 3.1C13.9377 3.1 13.928 3.1 13.9184 3.1C13.9088 3.1 13.8991 3.1 13.8895 3.1C13.8799 3.1 13.8702 3.1 13.8606 3.1C13.851 3.1 13.8413 3.1 13.8317 3.1C13.8221 3.1 13.8125 3.1 13.8028 3.1C13.7932 3.1 13.7836 3.1 13.7739 3.1C13.7643 3.1 13.7547 3.1 13.7451 3.1C13.7354 3.1 13.7258 3.1 13.7162 3.1C13.7066 3.1 13.697 3.1 13.6873 3.1C13.6777 3.1 13.6681 3.1 13.6585 3.1C13.6488 3.1 13.6392 3.1 13.6296 3.1C13.62 3.1 13.6104 3.1 13.6007 3.1C13.5911 3.1 13.5815 3.1 13.5719 3.1C13.5623 3.1 13.5527 3.1 13.543 3.1C13.5334 3.1 13.5238 3.1 13.5142 3.1C13.5046 3.1 13.495 3.1 13.4854 3.1C13.4757 3.1 13.4661 3.1 13.4565 3.1C13.4469 3.1 13.4373 3.1 13.4277 3.1C13.4181 3.1 13.4085 3.1 13.3989 3.1C13.3893 3.1 13.3796 3.1 13.37 3.1C13.3604 3.1 13.3508 3.1 13.3412 3.1C13.3316 3.1 13.322 3.1 13.3124 3.1C13.3028 3.1 13.2932 3.1 13.2836 3.1C13.274 3.1 13.2644 3.1 13.2548 3.1C13.2452 3.1 13.2356 3.1 13.226 3.1C13.2164 3.1 13.2068 3.1 13.1972 3.1C13.1876 3.1 13.1779 3.1 13.1683 3.1C13.1587 3.1 13.1491 3.1 13.1395 3.1C13.13 3.1 13.1204 3.1 13.1108 3.1C13.1012 3.1 13.0916 3.1 13.082 3.1C13.0724 3.1 13.0628 3.1 13.0532 3.1C13.0436 3.1 13.034 3.1 13.0244 3.1C13.0148 3.1 13.0052 3.1 12.9956 3.1C12.986 3.1 12.9764 3.1 12.9668 3.1C12.9572 3.1 12.9476 3.1 12.938 3.1C12.9284 3.1 12.9188 3.1 12.9092 3.1C12.8997 3.1 12.8901 3.1 12.8805 3.1C12.8709 3.1 12.8613 3.1 12.8517 3.1C12.8421 3.1 12.8325 3.1 12.8229 3.1C12.8133 3.1 12.8037 3.1 12.7942 3.1C12.7846 3.1 12.775 3.1 12.7654 3.1C12.7558 3.1 12.7462 3.1 12.7366 3.1C12.727 3.1 12.7174 3.1 12.7079 3.1C12.6983 3.1 12.6887 3.1 12.6791 3.1C12.6695 3.1 12.6599 3.1 12.6503 3.1C12.6408 3.1 12.6312 3.1 12.6216 3.1C12.612 3.1 12.6024 3.1 12.5928 3.1C12.5832 3.1 12.5737 3.1 12.5641 3.1C12.5545 3.1 12.5449 3.1 12.5353 3.1C12.5257 3.1 12.5161 3.1 12.5066 3.1C12.497 3.1 12.4874 3.1 12.4778 3.1C12.4682 3.1 12.4586 3.1 12.4491 3.1C12.4395 3.1 12.4299 3.1 12.4203 3.1C12.4107 3.1 12.4011 3.1 12.3916 3.1C12.382 3.1 12.3724 3.1 12.3628 3.1C12.3532 3.1 12.3436 3.1 12.3341 3.1C12.3245 3.1 12.3149 3.1 12.3053 3.1C12.2957 3.1 12.2862 3.1 12.2766 3.1C12.267 3.1 12.2574 3.1 12.2478 3.1C12.2383 3.1 12.2287 3.1 12.2191 3.1C12.2095 3.1 12.1999 3.1 12.1903 3.1C12.1808 3.1 12.1712 3.1 12.1616 3.1C12.152 3.1 12.1424 3.1 12.1329 3.1C12.1233 3.1 12.1137 3.1 12.1041 3.1C12.0945 3.1 12.085 3.1 12.0754 3.1C12.0658 3.1 12.0562 3.1 12.0466 3.1C12.0371 3.1 12.0275 3.1 12.0179 3.1C12.0083 3.1 11.9987 3.1 11.9892 3.1C11.9796 3.1 11.97 3.1 11.9604 3.1C11.9508 3.1 11.9413 3.1 11.9317 3.1C11.9221 3.1 11.9125 3.1 11.9029 3.1C11.8934 3.1 11.8838 3.1 11.8742 3.1C11.8646 3.1 11.855 3.1 11.8455 3.1C11.8359 3.1 11.8263 3.1 11.8167 3.1C11.8071 3.1 11.7975 3.1 11.788 3.1C11.7784 3.1 11.7688 3.1 11.7592 3.1C11.7496 3.1 11.7401 3.1 11.7305 3.1C11.7209 3.1 11.7113 3.1 11.7017 3.1C11.6922 3.1 11.6826 3.1 11.673 3.1C11.6634 3.1 11.6538 3.1 11.6442 3.1C11.6347 3.1 11.6251 3.1 11.6155 3.1C11.6059 3.1 11.5963 3.1 11.5867 3.1C11.5772 3.1 11.5676 3.1 11.558 3.1C11.5484 3.1 11.5388 3.1 11.5293 3.1C11.5197 3.1 11.5101 3.1 11.5005 3.1C11.4909 3.1 11.4813 3.1 11.4717 3.1C11.4622 3.1 11.4526 3.1 11.443 3.1C11.4334 3.1 11.4238 3.1 11.4142 3.1C11.4047 3.1 11.3951 3.1 11.3855 3.1C11.3759 3.1 11.3663 3.1 11.3567 3.1C11.3471 3.1 11.3375 3.1 11.328 3.1C11.3184 3.1 11.3088 3.1 11.2992 3.1C11.2896 3.1 11.28 3.1 11.2704 3.1C11.2608 3.1 11.2513 3.1 11.2417 3.1C11.2321 3.1 11.2225 3.1 11.2129 3.1C11.2033 3.1 11.1937 3.1 11.1841 3.1C11.1745 3.1 11.165 3.1 11.1554 3.1C11.1458 3.1 11.1362 3.1 11.1266 3.1C11.117 3.1 11.1074 3.1 11.0978 3.1C11.0882 3.1 11.0786 3.1 11.069 3.1C11.0594 3.1 11.0498 3.1 11.0403 3.1C11.0307 3.1 11.0211 3.1 11.0115 3.1C11.0019 3.1 10.9923 3.1 10.9827 3.1C10.9731 3.1 10.9635 3.1 10.9539 3.1C10.9443 3.1 10.9347 3.1 10.9251 3.1C10.9155 3.1 10.9059 3.1 10.8963 3.1C10.8867 3.1 10.8771 3.1 10.8675 3.1C10.8579 3.1 10.8483 3.1 10.8387 3.1C10.8291 3.1 10.8195 3.1 10.8099 3.1C10.8003 3.1 10.7907 3.1 10.7811 3.1C10.7715 3.1 10.7619 3.1 10.7523 3.1C10.7427 3.1 10.7331 3.1 10.7235 3.1C10.7139 3.1 10.7043 3.1 10.6947 3.1C10.6851 3.1 10.6755 3.1 10.6659 3.1C10.6563 3.1 10.6466 3.1 10.637 3.1C10.6274 3.1 10.6178 3.1 10.6082 3.1C10.5986 3.1 10.589 3.1 10.5794 3.1C10.5698 3.1 10.5602 3.1 10.5506 3.1C10.5409 3.1 10.5313 3.1 10.5217 3.1C10.5121 3.1 10.5025 3.1 10.4929 3.1C10.4833 3.1 10.4736 3.1 10.464 3.1C10.4544 3.1 10.4448 3.1 10.4352 3.1C10.4256 3.1 10.416 3.1 10.4063 3.1C10.3967 3.1 10.3871 3.1 10.3775 3.1C10.3679 3.1 10.3582 3.1 10.3486 3.1C10.339 3.1 10.3294 3.1 10.3198 3.1C10.3101 3.1 10.3005 3.1 10.2909 3.1C10.2813 3.1 10.2716 3.1 10.262 3.1C10.2524 3.1 10.2428 3.1 10.2331 3.1C10.2235 3.1 10.2139 3.1 10.2043 3.1C10.1946 3.1 10.185 3.1 10.1754 3.1C10.1657 3.1 10.1561 3.1 10.1465 3.1C10.1369 3.1 10.1272 3.1 10.1176 3.1C10.108 3.1 10.0983 3.1 10.0887 3.1C10.0791 3.1 10.0694 3.1 10.0598 3.1C10.0501 3.1 10.0405 3.1 10.0309 3.1C10.0212 3.1 10.0116 3.1 10.002 3.1C9.99232 3.1 9.98268 3.1 9.97304 3.1C9.9634 3.1 9.95375 3.1 9.94411 3.1C9.93447 3.1 9.92483 3.1 9.91518 3.1C9.90554 3.1 9.89589 3.1 9.88624 3.1C9.8766 3.1 9.86695 3.1 9.8573 3.1C9.84766 3.1 9.83801 3.1 9.82836 3.1C9.81871 3.1 9.80906 3.1 9.79941 3.1C9.78975 3.1 9.7801 3.1 9.77045 3.1C9.76079 3.1 9.75114 3.1 9.74148 3.1C9.73183 3.1 9.72217 3.1 9.71251 3.1C9.70286 3.1 9.6932 3.1 9.68354 3.1C9.67388 3.1 9.66422 3.1 9.65456 3.1C9.6449 3.1 9.63524 3.1 9.62557 3.1C9.61591 3.1 9.60624 3.1 9.59658 3.1C9.58691 3.1 9.57725 3.1 9.56758 3.1C9.55791 3.1 9.54824 3.1 9.53857 3.1C9.52891 3.1 9.51923 3.1 9.50956 3.1C9.49989 3.1 9.49022 3.1 9.48055 3.1C9.47087 3.1 9.4612 3.1 9.45152 3.1C9.44184 3.1 9.43217 3.1 9.42249 3.1C9.41281 3.1 9.40313 3.1 9.39345 3.1C9.38377 3.1 9.37409 3.1 9.36441 3.1C9.35473 3.1 9.34504 3.1 9.33536 3.1C9.32567 3.1 9.31599 3.1 9.3063 3.1C9.29661 3.1 9.28693 3.1 9.27724 3.1C9.26755 3.1 9.25786 3.1 9.24817 3.1C9.23847 3.1 9.22878 3.1 9.21909 3.1C9.20939 3.1 9.1997 3.1 9.19 3.1C9.18031 3.1 9.17061 3.1 9.16091 3.1C9.15121 3.1 9.14151 3.1 9.13181 3.1C9.12211 3.1 9.11241 3.1 9.1027 3.1C9.093 3.1 9.08329 3.1 9.07359 3.1C9.06388 3.1 9.05417 3.1 9.04447 3.1C9.03476 3.1 9.02505 3.1 9.01534 3.1C9.00563 3.1 8.99591 3.1 8.9862 3.1C8.97649 3.1 8.96677 3.1 8.95706 3.1C8.94734 3.1 8.93762 3.1 8.9279 3.1C8.91818 3.1 8.90846 3.1 8.89874 3.1C8.88902 3.1 8.8793 3.1 8.86957 3.1C8.85985 3.1 8.85013 3.1 8.8404 3.1C8.83067 3.1 8.82094 3.1 8.81121 3.1C8.80149 3.1 8.79175 3.1 8.78202 3.1C8.77229 3.1 8.76256 3.1 8.75282 3.1C8.74309 3.1 8.73335 3.1 8.72361 3.1C8.71388 3.1 8.70414 3.1 8.6944 3.1C8.68466 3.1 8.67491 3.1 8.66517 3.1C8.65543 3.1 8.64568 3.1 8.63594 3.1C8.62619 3.1 8.61644 3.1 8.6067 3.1C8.59695 3.1 8.5872 3.1 8.57744 3.1C8.56769 3.1 8.55794 3.1 8.54819 3.1C8.53843 3.1 8.52867 3.1 8.51892 3.1C8.50916 3.1 8.4994 3.1 8.48964 3.1C8.47988 3.1 8.47012 3.1 8.46035 3.1C8.45059 3.1 8.44083 3.1 8.43106 3.1C8.42129 3.1 8.41152 3.1 8.40175 3.1C8.39198 3.1 8.38221 3.1 8.37244 3.1C8.36267 3.1 8.35289 3.1 8.34312 3.1C8.33334 3.1 8.32357 3.1 8.31379 3.1C8.30401 3.1 8.29423 3.1 8.28445 3.1C8.27466 3.1 8.26488 3.1 8.2551 3.1C8.24531 3.1 8.23552 3.1 8.22574 3.1C8.21595 3.1 8.20616 3.1 8.19637 3.1C8.18657 3.1 8.17678 3.1 8.16699 3.1C8.15719 3.1 8.1474 3.1 8.1376 3.1C8.1278 3.1 8.118 3.1 8.1082 3.1C8.0984 3.1 8.08859 3.1 8.07879 3.1C8.06899 3.1 8.05918 3.1 8.04937 3.1C8.03956 3.1 8.02975 3.1 8.01994 3.1C8.01013 3.1 8.00032 3.1 7.9905 3.1C7.98069 3.1 7.97087 3.1 7.96106 3.1C7.95124 3.1 7.94142 3.1 7.9316 3.1C7.92177 3.1 7.91195 3.1 7.90213 3.1C7.8923 3.1 7.88248 3.1 7.87265 3.1C7.86282 3.1 7.85299 3.1 7.84316 3.1C7.83332 3.1 7.82349 3.1 7.81366 3.1C7.80382 3.1 7.79398 3.1 7.78414 3.1C7.77431 3.1 7.76447 3.1 7.75462 3.1C7.74478 3.1 7.73494 3.1 7.72509 3.1C7.71524 3.1 7.7054 3.1 7.69555 3.1C7.6857 3.1 7.67585 3.1 7.66599 3.1C7.65614 3.1 7.64628 3.1 7.63643 3.1C7.62657 3.1 7.61671 3.1 7.60685 3.1C7.59699 3.1 7.58713 3.1 7.57726 3.1C7.5674 3.1 7.55753 3.1 7.54766 3.1C7.5378 3.1 7.52793 3.1 7.51805 3.1C7.50818 3.1 7.49831 3.1 7.48843 3.1C7.47856 3.1 7.46868 3.1 7.4588 3.1C7.44892 3.1 7.43904 3.1 7.42916 3.1C7.41927 3.1 7.40939 3.1 7.3995 3.1C7.38961 3.1 7.37972 3.1 7.36983 3.1C7.35994 3.1 7.35005 3.1 7.34015 3.1C7.33026 3.1 7.32036 3.1 7.31046 3.1C7.30056 3.1 7.29066 3.1 7.28076 3.1C7.27086 3.1 7.26095 3.1 7.25104 3.1C7.24114 3.1 7.23123 3.1 7.22132 3.1C7.21141 3.1 7.20149 3.1 7.19158 3.1C7.18166 3.1 7.17175 3.1 7.16183 3.1C7.15191 3.1 7.14199 3.1 7.13206 3.1C7.12214 3.1 7.11222 3.1 7.10229 3.1C7.09236 3.1 7.08243 3.1 7.0725 3.1C7.06257 3.1 7.05264 3.1 7.0427 3.1C7.03277 3.1 7.02283 3.1 7.01289 3.1C7.00295 3.1 6.99301 3.1 6.98306 3.1C6.97312 3.1 6.96317 3.1 6.95323 3.1C6.94328 3.1 6.93333 3.1 6.92337 3.1C6.91342 3.1 6.90347 3.1 6.89351 3.1C6.88355 3.1 6.8736 3.1 6.86363 3.1C6.85367 3.1 6.84371 3.1 6.83375 3.1C6.82378 3.1 6.81381 3.1 6.80384 3.1C6.79387 3.1 6.7839 3.1 6.77393 3.1C6.76395 3.1 6.75398 3.1 6.744 3.1C6.73402 3.1 6.72404 3.1 6.71406 3.1C6.70407 3.1 6.69409 3.1 6.6841 3.1C6.67411 3.1 6.66413 3.1 6.65413 3.1C6.64414 3.1 6.63415 3.1 6.62415 3.1C6.61416 3.1 6.60416 3.1 6.59416 3.1C6.58415 3.1 6.57415 3.1 6.56415 3.1C6.55414 3.1 6.54413 3.1 6.53412 3.1C6.52411 3.1 6.5141 3.1 6.50409 3.1C6.49407 3.1 6.48406 3.1 6.47404 3.1C6.46402 3.1 6.454 3.1 6.44397 3.1C6.43395 3.1 6.42392 3.1 6.41389 3.1C6.40387 3.1 6.39383 3.1 6.3838 3.1C6.37377 3.1 6.36373 3.1 6.3537 3.1C6.34366 3.1 6.33362 3.1 6.32357 3.1C6.31353 3.1 6.30349 3.1 6.29344 3.1C6.28339 3.1 6.27334 3.1 6.26329 3.1C6.25324 3.1 6.24318 3.1 6.23313 3.1C6.22307 3.1 6.21301 3.1 6.20295 3.1C6.19289 3.1 6.18282 3.1 6.17276 3.1C6.16269 3.1 6.15262 3.1 6.14255 3.1C6.13248 3.1 6.1224 3.1 6.11233 3.1C6.10225 3.1 6.09217 3.1 6.08209 3.1C6.07201 3.1 6.06192 3.1 6.05184 3.1C6.04175 3.1 6.03166 3.1 6.02157 3.1C6.01148 3.1 6.00138 3.1 5.99129 3.1C5.98119 3.1 5.97109 3.1 5.96099 3.1C5.95089 3.1 5.94079 3.1 5.93068 3.1C5.92057 3.1 5.91046 3.1 5.90035 3.1C5.89024 3.1 5.88013 3.1 5.87001 3.1C5.85989 3.1 5.84977 3.1 5.83965 3.1C5.82953 3.1 5.81941 3.1 5.80928 3.1C5.79915 3.1 5.78902 3.1 5.77889 3.1C5.76876 3.1 5.75862 3.1 5.74849 3.1C5.73835 3.1 5.72821 3.1 5.71807 3.1C5.70792 3.1 5.69778 3.1 5.68763 3.1C5.67748 3.1 5.66733 3.1 5.65718 3.1C5.64702 3.1 5.63687 3.1 5.62671 3.1C5.61655 3.1 5.60639 3.1 5.59623 3.1C5.58606 3.1 5.5759 3.1 5.56573 3.1C5.55556 3.1 5.54539 3.1 5.53521 3.1C5.52504 3.1 5.51486 3.1 5.50468 3.1C5.4945 3.1 5.48432 3.1 5.47413 3.1C5.46395 3.1 5.45376 3.1 5.44357 3.1C5.43338 3.1 5.42318 3.1 5.41299 3.1C5.40279 3.1 5.39259 3.1 5.38239 3.1C5.37219 3.1 5.36198 3.1 5.35178 3.1C5.34157 3.1 5.33136 3.1 5.32115 3.1C5.31093 3.1 5.30072 3.1 5.2905 3.1C5.28028 3.1 5.27006 3.1 5.25983 3.1C5.24961 3.1 5.23938 3.1 5.22915 3.1C5.21892 3.1 5.20869 3.1 5.19846 3.1C5.18822 3.1 5.17798 3.1 5.16774 3.1C5.1575 3.1 5.14726 3.1 5.13701 3.1C5.12676 3.1 5.11651 3.1 5.10626 3.1C5.09601 3.1 5.08575 3.1 5.07549 3.1C5.06524 3.1 5.05498 3.1 5.04471 3.1C5.03445 3.1 5.02418 3.1 5.01391 3.1C5.00364 3.1 4.99337 3.1 4.98309 3.1C4.97282 3.1 4.96254 3.1 4.95226 3.1C4.94198 3.1 4.93169 3.1 4.9214 3.1C4.91112 3.1 4.90083 3.1 4.89053 3.1C4.88024 3.1 4.86994 3.1 4.85964 3.1C4.84934 3.1 4.83904 3.1 4.82874 3.1V4ZM21.5477 7.21335L20.8323 6.66734L11.6795 18.6606L12.395 19.2066L13.1104 19.7526L22.2632 7.75935L21.5477 7.21335ZM8.82516 18.2761L9.71611 18.1488L9.07252 13.6437L8.18156 13.7709L7.29061 13.8982L7.9342 18.4034L8.82516 18.2761ZM9.07995 11.8057L9.56663 12.5628L15.4867 8.75706L15 8L14.5133 7.24294L8.59327 11.0487L9.07995 11.8057ZM8.18156 13.7709L9.07252 13.6437C9.01167 13.2178 9.20472 12.7955 9.56663 12.5628L9.07995 11.8057L8.59327 11.0487C7.63915 11.662 7.1302 12.7754 7.29061 13.8982L8.18156 13.7709ZM12.395 19.2066L11.6795 18.6606C11.0877 19.4361 9.85408 19.1146 9.71611 18.1488L8.82516 18.2761L7.9342 18.4034C8.29793 20.9495 11.5501 21.7972 13.1104 19.7526L12.395 19.2066ZM19.9576 4V4.9C20.8685 4.9 21.3847 5.94351 20.8323 6.66734L21.5477 7.21335L22.2632 7.75935C23.7198 5.85061 22.3584 3.1 19.9576 3.1V4ZM3.41422 7.41422L4.05061 6.77782C3.35786 6.08507 3.84845 4.9 4.82874 4.9V4V3.1C2.24541 3.1 0.950713 6.2235 2.77782 8.05061L3.41422 7.41422Z" fill="var(--stroke-0, #666666)"/>
</g>
</svg>
