<svg preserveAspectRatio="none" width="100%" height="100%" overflow="visible" style="display: block;" viewBox="0 0 24 24" fill="none" xmlns="http://www.w3.org/2000/svg">
<g id="DM Icon Container">
<path id="Vector 3" d="M15.5408 9.84118C16.0053 9.54253 16.1398 8.92381 15.8412 8.45924C15.5425 7.99467 14.9238 7.86017 14.4592 8.15882L15.5408 9.84118ZM8.18156 14.7709L7.19161 14.9124L8.18156 14.7709ZM9.07995 12.8057L8.53919 11.9646L9.07995 12.8057ZM21.5477 8.21335L20.7528 7.60667L21.5477 8.21335ZM6.5 11.5L7.20711 10.7929L4.12132 7.70711L3.41422 8.41422L2.70711 9.12132L5.79289 12.2071L6.5 11.5ZM4.82874 5V6C4.83904 6 4.84934 6 4.85964 6C4.86994 6 4.88024 6 4.89053 6C4.90083 6 4.91112 6 4.9214 6C4.93169 6 4.94198 6 4.95226 6C4.96254 6 4.97282 6 4.98309 6C4.99337 6 5.00364 6 5.01391 6C5.02418 6 5.03445 6 5.04471 6C5.05498 6 5.06524 6 5.07549 6C5.08575 6 5.09601 6 5.10626 6C5.11651 6 5.12676 6 5.13701 6C5.14726 6 5.1575 6 5.16774 6C5.17798 6 5.18822 6 5.19846 6C5.20869 6 5.21892 6 5.22915 6C5.23938 6 5.24961 6 5.25983 6C5.27006 6 5.28028 6 5.2905 6C5.30072 6 5.31093 6 5.32115 6C5.33136 6 5.34157 6 5.35178 6C5.36198 6 5.37219 6 5.38239 6C5.39259 6 5.40279 6 5.41299 6C5.42318 6 5.43338 6 5.44357 6C5.45376 6 5.46395 6 5.47413 6C5.48432 6 5.4945 6 5.50468 6C5.51486 6 5.52504 6 5.53521 6C5.54539 6 5.55556 6 5.56573 6C5.5759 6 5.58606 6 5.59623 6C5.60639 6 5.61655 6 5.62671 6C5.63687 6 5.64702 6 5.65718 6C5.66733 6 5.67748 6 5.68763 6C5.69778 6 5.70792 6 5.71807 6C5.72821 6 5.73835 6 5.74849 6C5.75862 6 5.76876 6 5.77889 6C5.78902 6 5.79915 6 5.80928 6C5.81941 6 5.82953 6 5.83965 6C5.84977 6 5.85989 6 5.87001 6C5.88013 6 5.89024 6 5.90035 6C5.91046 6 5.92057 6 5.93068 6C5.94079 6 5.95089 6 5.96099 6C5.97109 6 5.98119 6 5.99129 6C6.00138 6 6.01148 6 6.02157 6C6.03166 6 6.04175 6 6.05184 6C6.06192 6 6.07201 6 6.08209 6C6.09217 6 6.10225 6 6.11233 6C6.1224 6 6.13248 6 6.14255 6C6.15262 6 6.16269 6 6.17276 6C6.18282 6 6.19289 6 6.20295 6C6.21301 6 6.22307 6 6.23313 6C6.24318 6 6.25324 6 6.26329 6C6.27334 6 6.28339 6 6.29344 6C6.30349 6 6.31353 6 6.32357 6C6.33362 6 6.34366 6 6.3537 6C6.36373 6 6.37377 6 6.3838 6C6.39383 6 6.40387 6 6.41389 6C6.42392 6 6.43395 6 6.44397 6C6.454 6 6.46402 6 6.47404 6C6.48406 6 6.49407 6 6.50409 6C6.5141 6 6.52411 6 6.53412 6C6.54413 6 6.55414 6 6.56415 6C6.57415 6 6.58415 6 6.59416 6C6.60416 6 6.61416 6 6.62415 6C6.63415 6 6.64414 6 6.65413 6C6.66413 6 6.67411 6 6.6841 6C6.69409 6 6.70407 6 6.71406 6C6.72404 6 6.73402 6 6.744 6C6.75398 6 6.76395 6 6.77393 6C6.7839 6 6.79387 6 6.80384 6C6.81381 6 6.82378 6 6.83375 6C6.84371 6 6.85367 6 6.86363 6C6.8736 6 6.88355 6 6.89351 6C6.90347 6 6.91342 6 6.92337 6C6.93333 6 6.94328 6 6.95323 6C6.96317 6 6.97312 6 6.98306 6C6.99301 6 7.00295 6 7.01289 6C7.02283 6 7.03277 6 7.0427 6C7.05264 6 7.06257 6 7.0725 6C7.08243 6 7.09236 6 7.10229 6C7.11222 6 7.12214 6 7.13206 6C7.14199 6 7.15191 6 7.16183 6C7.17175 6 7.18166 6 7.19158 6C7.20149 6 7.21141 6 7.22132 6C7.23123 6 7.24114 6 7.25104 6C7.26095 6 7.27086 6 7.28076 6C7.29066 6 7.30056 6 7.31046 6C7.32036 6 7.33026 6 7.34015 6C7.35005 6 7.35994 6 7.36983 6C7.37972 6 7.38961 6 7.3995 6C7.40939 6 7.41927 6 7.42916 6C7.43904 6 7.44892 6 7.4588 6C7.46868 6 7.47856 6 7.48843 6C7.49831 6 7.50818 6 7.51805 6C7.52793 6 7.5378 6 7.54766 6C7.55753 6 7.5674 6 7.57726 6C7.58713 6 7.59699 6 7.60685 6C7.61671 6 7.62657 6 7.63643 6C7.64628 6 7.65614 6 7.66599 6C7.67585 6 7.6857 6 7.69555 6C7.7054 6 7.71524 6 7.72509 6C7.73494 6 7.74478 6 7.75462 6C7.76447 6 7.77431 6 7.78414 6C7.79398 6 7.80382 6 7.81366 6C7.82349 6 7.83332 6 7.84316 6C7.85299 6 7.86282 6 7.87265 6C7.88248 6 7.8923 6 7.90213 6C7.91195 6 7.92177 6 7.9316 6C7.94142 6 7.95124 6 7.96106 6C7.97087 6 7.98069 6 7.9905 6C8.00032 6 8.01013 6 8.01994 6C8.02975 6 8.03956 6 8.04937 6C8.05918 6 8.06899 6 8.07879 6C8.08859 6 8.0984 6 8.1082 6C8.118 6 8.1278 6 8.1376 6C8.1474 6 8.15719 6 8.16699 6C8.17678 6 8.18657 6 8.19637 6C8.20616 6 8.21595 6 8.22574 6C8.23552 6 8.24531 6 8.2551 6C8.26488 6 8.27466 6 8.28445 6C8.29423 6 8.30401 6 8.31379 6C8.32357 6 8.33334 6 8.34312 6C8.35289 6 8.36267 6 8.37244 6C8.38221 6 8.39198 6 8.40175 6C8.41152 6 8.42129 6 8.43106 6C8.44083 6 8.45059 6 8.46035 6C8.47012 6 8.47988 6 8.48964 6C8.4994 6 8.50916 6 8.51892 6C8.52867 6 8.53843 6 8.54819 6C8.55794 6 8.56769 6 8.57744 6C8.5872 6 8.59695 6 8.6067 6C8.61644 6 8.62619 6 8.63594 6C8.64568 6 8.65543 6 8.66517 6C8.67491 6 8.68466 6 8.6944 6C8.70414 6 8.71388 6 8.72361 6C8.73335 6 8.74309 6 8.75282 6C8.76256 6 8.77229 6 8.78202 6C8.79175 6 8.80149 6 8.81121 6C8.82094 6 8.83067 6 8.8404 6C8.85013 6 8.85985 6 8.86957 6C8.8793 6 8.88902 6 8.89874 6C8.90846 6 8.91818 6 8.9279 6C8.93762 6 8.94734 6 8.95706 6C8.96677 6 8.97649 6 8.9862 6C8.99591 6 9.00563 6 9.01534 6C9.02505 6 9.03476 6 9.04447 6C9.05417 6 9.06388 6 9.07359 6C9.08329 6 9.093 6 9.1027 6C9.11241 6 9.12211 6 9.13181 6C9.14151 6 9.15121 6 9.16091 6C9.17061 6 9.18031 6 9.19 6C9.1997 6 9.20939 6 9.21909 6C9.22878 6 9.23847 6 9.24817 6C9.25786 6 9.26755 6 9.27724 6C9.28693 6 9.29661 6 9.3063 6C9.31599 6 9.32567 6 9.33536 6C9.34504 6 9.35473 6 9.36441 6C9.37409 6 9.38377 6 9.39345 6C9.40313 6 9.41281 6 9.42249 6C9.43217 6 9.44184 6 9.45152 6C9.4612 6 9.47087 6 9.48055 6C9.49022 6 9.49989 6 9.50956 6C9.51923 6 9.52891 6 9.53857 6C9.54824 6 9.55791 6 9.56758 6C9.57725 6 9.58691 6 9.59658 6C9.60624 6 9.61591 6 9.62557 6C9.63524 6 9.6449 6 9.65456 6C9.66422 6 9.67388 6 9.68354 6C9.6932 6 9.70286 6 9.71251 6C9.72217 6 9.73183 6 9.74148 6C9.75114 6 9.76079 6 9.77045 6C9.7801 6 9.78975 6 9.79941 6C9.80906 6 9.81871 6 9.82836 6C9.83801 6 9.84766 6 9.8573 6C9.86695 6 9.8766 6 9.88624 6C9.89589 6 9.90554 6 9.91518 6C9.92483 6 9.93447 6 9.94411 6C9.95375 6 9.9634 6 9.97304 6C9.98268 6 9.99232 6 10.002 6C10.0116 6 10.0212 6 10.0309 6C10.0405 6 10.0501 6 10.0598 6C10.0694 6 10.0791 6 10.0887 6C10.0983 6 10.108 6 10.1176 6C10.1272 6 10.1369 6 10.1465 6C10.1561 6 10.1657 6 10.1754 6C10.185 6 10.1946 6 10.2043 6C10.2139 6 10.2235 6 10.2331 6C10.2428 6 10.2524 6 10.262 6C10.2716 6 10.2813 6 10.2909 6C10.3005 6 10.3101 6 10.3198 6C10.3294 6 10.339 6 10.3486 6C10.3582 6 10.3679 6 10.3775 6C10.3871 6 10.3967 6 10.4063 6C10.416 6 10.4256 6 10.4352 6C10.4448 6 10.4544 6 10.464 6C10.4736 6 10.4833 6 10.4929 6C10.5025 6 10.5121 6 10.5217 6C10.5313 6 10.5409 6 10.5506 6C10.5602 6 10.5698 6 10.5794 6C10.589 6 10.5986 6 10.6082 6C10.6178 6 10.6274 6 10.637 6C10.6466 6 10.6563 6 10.6659 6C10.6755 6 10.6851 6 10.6947 6C10.7043 6 10.7139 6 10.7235 6C10.7331 6 10.7427 6 10.7523 6C10.7619 6 10.7715 6 10.7811 6C10.7907 6 10.8003 6 10.8099 6C10.8195 6 10.8291 6 10.8387 6C10.8483 6 10.8579 6 10.8675 6C10.8771 6 10.8867 6 10.8963 6C10.9059 6 10.9155 6 10.9251 6C10.9347 6 10.9443 6 10.9539 6C10.9635 6 10.9731 6 10.9827 6C10.9923 6 11.0019 6 11.0115 6C11.0211 6 11.0307 6 11.0403 6C11.0498 6 11.0594 6 11.069 6C11.0786 6 11.0882 6 11.0978 6C11.1074 6 11.117 6 11.1266 6C11.1362 6 11.1458 6 11.1554 6C11.165 6 11.1745 6 11.1841 6C11.1937 6 11.2033 6 11.2129 6C11.2225 6 11.2321 6 11.2417 6C11.2513 6 11.2608 6 11.2704 6C11.28 6 11.2896 6 11.2992 6C11.3088 6 11.3184 6 11.328 6C11.3375 6 11.3471 6 11.3567 6C11.3663 6 11.3759 6 11.3855 6C11.3951 6 11.4047 6 11.4142 6C11.4238 6 11.4334 6 11.443 6C11.4526 6 11.4622 6 11.4717 6C11.4813 6 11.4909 6 11.5005 6C11.5101 6 11.5197 6 11.5293 6C11.5388 6 11.5484 6 11.558 6C11.5676 6 11.5772 6 11.5867 6C11.5963 6 11.6059 6 11.6155 6C11.6251 6 11.6347 6 11.6442 6C11.6538 6 11.6634 6 11.673 6C11.6826 6 11.6922 6 11.7017 6C11.7113 6 11.7209 6 11.7305 6C11.7401 6 11.7496 6 11.7592 6C11.7688 6 11.7784 6 11.788 6C11.7975 6 11.8071 6 11.8167 6C11.8263 6 11.8359 6 11.8455 6C11.855 6 11.8646 6 11.8742 6C11.8838 6 11.8934 6 11.9029 6C11.9125 6 11.9221 6 11.9317 6C11.9413 6 11.9508 6 11.9604 6C11.97 6 11.9796 6 11.9892 6C11.9987 6 12.0083 6 12.0179 6C12.0275 6 12.0371 6 12.0466 6C12.0562 6 12.0658 6 12.0754 6C12.085 6 12.0945 6 12.1041 6C12.1137 6 12.1233 6 12.1329 6C12.1424 6 12.152 6 12.1616 6C12.1712 6 12.1808 6 12.1903 6C12.1999 6 12.2095 6 12.2191 6C12.2287 6 12.2383 6 12.2478 6C12.2574 6 12.267 6 12.2766 6C12.2862 6 12.2957 6 12.3053 6C12.3149 6 12.3245 6 12.3341 6C12.3436 6 12.3532 6 12.3628 6C12.3724 6 12.382 6 12.3916 6C12.4011 6 12.4107 6 12.4203 6C12.4299 6 12.4395 6 12.4491 6C12.4586 6 12.4682 6 12.4778 6C12.4874 6 12.497 6 12.5066 6C12.5161 6 12.5257 6 12.5353 6C12.5449 6 12.5545 6 12.5641 6C12.5737 6 12.5832 6 12.5928 6C12.6024 6 12.612 6 12.6216 6C12.6312 6 12.6408 6 12.6503 6C12.6599 6 12.6695 6 12.6791 6C12.6887 6 12.6983 6 12.7079 6C12.7174 6 12.727 6 12.7366 6C12.7462 6 12.7558 6 12.7654 6C12.775 6 12.7846 6 12.7942 6C12.8037 6 12.8133 6 12.8229 6C12.8325 6 12.8421 6 12.8517 6C12.8613 6 12.8709 6 12.8805 6C12.8901 6 12.8997 6 12.9092 6C12.9188 6 12.9284 6 12.938 6C12.9476 6 12.9572 6 12.9668 6C12.9764 6 12.986 6 12.9956 6C13.0052 6 13.0148 6 13.0244 6C13.034 6 13.0436 6 13.0532 6C13.0628 6 13.0724 6 13.082 6C13.0916 6 13.1012 6 13.1108 6C13.1204 6 13.13 6 13.1395 6C13.1491 6 13.1587 6 13.1683 6C13.1779 6 13.1876 6 13.1972 6C13.2068 6 13.2164 6 13.226 6C13.2356 6 13.2452 6 13.2548 6C13.2644 6 13.274 6 13.2836 6C13.2932 6 13.3028 6 13.3124 6C13.322 6 13.3316 6 13.3412 6C13.3508 6 13.3604 6 13.37 6C13.3796 6 13.3893 6 13.3989 6C13.4085 6 13.4181 6 13.4277 6C13.4373 6 13.4469 6 13.4565 6C13.4661 6 13.4757 6 13.4854 6C13.495 6 13.5046 6 13.5142 6C13.5238 6 13.5334 6 13.543 6C13.5527 6 13.5623 6 13.5719 6C13.5815 6 13.5911 6 13.6007 6C13.6104 6 13.62 6 13.6296 6C13.6392 6 13.6488 6 13.6585 6C13.6681 6 13.6777 6 13.6873 6C13.697 6 13.7066 6 13.7162 6C13.7258 6 13.7354 6 13.7451 6C13.7547 6 13.7643 6 13.7739 6C13.7836 6 13.7932 6 13.8028 6C13.8125 6 13.8221 6 13.8317 6C13.8413 6 13.851 6 13.8606 6C13.8702 6 13.8799 6 13.8895 6C13.8991 6 13.9088 6 13.9184 6C13.928 6 13.9377 6 13.9473 6C13.957 6 13.9666 6 13.9762 6C13.9859 6 13.9955 6 14.0051 6C14.0148 6 14.0244 6 14.0341 6C14.0437 6 14.0533 6 14.063 6C14.0726 6 14.0823 6 14.0919 6C14.1016 6 14.1112 6 14.1209 6C14.1305 6 14.1402 6 14.1498 6C14.1594 6 14.1691 6 14.1787 6C14.1884 6 14.1981 6 14.2077 6C14.2174 6 14.227 6 14.2367 6C14.2463 6 14.256 6 14.2656 6C14.2753 6 14.2849 6 14.2946 6C14.3043 6 14.3139 6 14.3236 6C14.3332 6 14.3429 6 14.3526 6C14.3622 6 14.3719 6 14.3815 6C14.3912 6 14.4009 6 14.4105 6C14.4202 6 14.4299 6 14.4395 6C14.4492 6 14.4589 6 14.4685 6C14.4782 6 14.4879 6 14.4976 6C14.5072 6 14.5169 6 14.5266 6C14.5363 6 14.5459 6 14.5556 6C14.5653 6 14.575 6 14.5846 6C14.5943 6 14.604 6 14.6137 6C14.6234 6 14.633 6 14.6427 6C14.6524 6 14.6621 6 14.6718 6C14.6815 6 14.6911 6 14.7008 6C14.7105 6 14.7202 6 14.7299 6C14.7396 6 14.7493 6 14.759 6C14.7687 6 14.7784 6 14.7881 6C14.7977 6 14.8074 6 14.8171 6C14.8268 6 14.8365 6 14.8462 6C14.8559 6 14.8656 6 14.8753 6C14.885 6 14.8947 6 14.9044 6C14.9141 6 14.9239 6 14.9336 6C14.9433 6 14.953 6 14.9627 6C14.9724 6 14.9821 6 14.9918 6C15.0015 6 15.0112 6 15.021 6C15.0307 6 15.0404 6 15.0501 6C15.0598 6 15.0695 6 15.0793 6C15.089 6 15.0987 6 15.1084 6C15.1181 6 15.1279 6 15.1376 6C15.1473 6 15.157 6 15.1668 6C15.1765 6 15.1862 6 15.1959 6C15.2057 6 15.2154 6 15.2251 6C15.2349 6 15.2446 6 15.2543 6C15.2641 6 15.2738 6 15.2836 6C15.2933 6 15.303 6 15.3128 6C15.3225 6 15.3323 6 15.342 6C15.3517 6 15.3615 6 15.3712 6C15.381 6 15.3907 6 15.4005 6C15.4102 6 15.42 6 15.4297 6C15.4395 6 15.4492 6 15.459 6C15.4688 6 15.4785 6 15.4883 6C15.498 6 15.5078 6 15.5175 6C15.5273 6 15.5371 6 15.5468 6C15.5566 6 15.5664 6 15.5761 6C15.5859 6 15.5957 6 15.6054 6C15.6152 6 15.625 6 15.6348 6C15.6445 6 15.6543 6 15.6641 6C15.6739 6 15.6836 6 15.6934 6C15.7032 6 15.713 6 15.7228 6C15.7325 6 15.7423 6 15.7521 6C15.7619 6 15.7717 6 15.7815 6C15.7913 6 15.8011 6 15.8108 6C15.8206 6 15.8304 6 15.8402 6C15.85 6 15.8598 6 15.8696 6C15.8794 6 15.8892 6 15.899 6C15.9088 6 15.9186 6 15.9284 6C15.9382 6 15.948 6 15.9579 6C15.9677 6 15.9775 6 15.9873 6C15.9971 6 16.0069 6 16.0167 6C16.0265 6 16.0364 6 16.0462 6C16.056 6 16.0658 6 16.0756 6C16.0855 6 16.0953 6 16.1051 6C16.1149 6 16.1248 6 16.1346 6C16.1444 6 16.1543 6 16.1641 6C16.1739 6 16.1838 6 16.1936 6C16.2034 6 16.2133 6 16.2231 6C16.2329 6 16.2428 6 16.2526 6C16.2625 6 16.2723 6 16.2822 6C16.292 6 16.3019 6 16.3117 6C16.3216 6 16.3314 6 16.3413 6C16.3511 6 16.361 6 16.3708 6C16.3807 6 16.3905 6 16.4004 6C16.4103 6 16.4201 6 16.43 6C16.4399 6 16.4497 6 16.4596 6C16.4695 6 16.4793 6 16.4892 6C16.4991 6 16.509 6 16.5188 6C16.5287 6 16.5386 6 16.5485 6C16.5584 6 16.5682 6 16.5781 6C16.588 6 16.5979 6 16.6078 6C16.6177 6 16.6276 6 16.6375 6C16.6473 6 16.6572 6 16.6671 6C16.677 6 16.6869 6 16.6968 6C16.7067 6 16.7166 6 16.7265 6C16.7364 6 16.7463 6 16.7563 6C16.7662 6 16.7761 6 16.786 6C16.7959 6 16.8058 6 16.8157 6C16.8256 6 16.8356 6 16.8455 6C16.8554 6 16.8653 6 16.8752 6C16.8852 6 16.8951 6 16.905 6C16.9149 6 16.9249 6 16.9348 6C16.9447 6 16.9547 6 16.9646 6C16.9746 6 16.9845 6 16.9944 6C17.0044 6 17.0143 6 17.0243 6C17.0342 6 17.0442 6 17.0541 6C17.064 6 17.074 6 17.084 6C17.0939 6 17.1039 6 17.1138 6C17.1238 6 17.1337 6 17.1437 6C17.1537 6 17.1636 6 17.1736 6C17.1836 6 17.1935 6 17.2035 6C17.2135 6 17.2234 6 17.2334 6C17.2434 6 17.2534 6 17.2633 6C17.2733 6 17.2833 6 17.2933 6C17.3033 6 17.3133 6 17.3233 6C17.3332 6 17.3432 6 17.3532 6C17.3632 6 17.3732 6 17.3832 6C17.3932 6 17.4032 6 17.4132 6C17.4232 6 17.4332 6 17.4432 6C17.4532 6 17.4632 6 17.4732 6C17.4833 6 17.4933 6 17.5033 6C17.5133 6 17.5233 6 17.5333 6C17.5434 6 17.5534 6 17.5634 6C17.5734 6 17.5835 6 17.5935 6C17.6035 6 17.6136 6 17.6236 6C17.6336 6 17.6437 6 17.6537 6C17.6637 6 17.6738 6 17.6838 6C17.6939 6 17.7039 6 17.714 6C17.724 6 17.7341 6 17.7441 6C17.7542 6 17.7642 6 17.7743 6C17.7843 6 17.7944 6 17.8045 6C17.8145 6 17.8246 6 17.8347 6C17.8447 6 17.8548 6 17.8649 6C17.8749 6 17.885 6 17.8951 6C17.9052 6 17.9153 6 17.9253 6C17.9354 6 17.9455 6 17.9556 6C17.9657 6 17.9758 6 17.9859 6C17.996 6 18.006 6 18.0161 6C18.0262 6 18.0363 6 18.0464 6C18.0565 6 18.0667 6 18.0768 6C18.0869 6 18.097 6 18.1071 6C18.1172 6 18.1273 6 18.1374 6C18.1476 6 18.1577 6 18.1678 6C18.1779 6 18.1881 6 18.1982 6C18.2083 6 18.2184 6 18.2286 6C18.2387 6 18.2488 6 18.259 6C18.2691 6 18.2793 6 18.2894 6C18.2995 6 18.3097 6 18.3198 6C18.33 6 18.3401 6 18.3503 6C18.3605 6 18.3706 6 18.3808 6C18.3909 6 18.4011 6 18.4113 6C18.4214 6 18.4316 6 18.4418 6C18.4519 6 18.4621 6 18.4723 6C18.4825 6 18.4926 6 18.5028 6C18.513 6 18.5232 6 18.5334 6C18.5436 6 18.5537 6 18.5639 6C18.5741 6 18.5843 6 18.5945 6C18.6047 6 18.6149 6 18.6251 6C18.6353 6 18.6455 6 18.6557 6C18.666 6 18.6762 6 18.6864 6C18.6966 6 18.7068 6 18.717 6C18.7272 6 18.7375 6 18.7477 6C18.7579 6 18.7681 6 18.7784 6C18.7886 6 18.7988 6 18.8091 6C18.8193 6 18.8296 6 18.8398 6C18.85 6 18.8603 6 18.8705 6C18.8808 6 18.891 6 18.9013 6C18.9115 6 18.9218 6 18.9321 6C18.9423 6 18.9526 6 18.9628 6C18.9731 6 18.9834 6 18.9937 6C19.0039 6 19.0142 6 19.0245 6C19.0348 6 19.045 6 19.0553 6C19.0656 6 19.0759 6 19.0862 6C19.0965 6 19.1068 6 19.117 6C19.1273 6 19.1376 6 19.1479 6C19.1582 6 19.1685 6 19.1789 6C19.1892 6 19.1995 6 19.2098 6C19.2201 6 19.2304 6 19.2407 6C19.251 6 19.2614 6 19.2717 6C19.282 6 19.2923 6 19.3027 6C19.313 6 19.3233 6 19.3337 6C19.344 6 19.3544 6 19.3647 6C19.375 6 19.3854 6 19.3957 6C19.4061 6 19.4164 6 19.4268 6C19.4371 6 19.4475 6 19.4579 6C19.4682 6 19.4786 6 19.489 6C19.4993 6 19.5097 6 19.5201 6C19.5304 6 19.5408 6 19.5512 6C19.5616 6 19.572 6 19.5823 6C19.5927 6 19.6031 6 19.6135 6C19.6239 6 19.6343 6 19.6447 6C19.6551 6 19.6655 6 19.6759 6C19.6863 6 19.6967 6 19.7071 6C19.7175 6 19.728 6 19.7384 6C19.7488 6 19.7592 6 19.7696 6C19.7801 6 19.7905 6 19.8009 6C19.8114 6 19.8218 6 19.8322 6C19.8427 6 19.8531 6 19.8635 6C19.874 6 19.8844 6 19.8949 6C19.9053 6 19.9158 6 19.9262 6C19.9367 6 19.9472 6 19.9576 6V5V4C19.9472 4 19.9367 4 19.9262 4C19.9158 4 19.9053 4 19.8949 4C19.8844 4 19.874 4 19.8635 4C19.8531 4 19.8427 4 19.8322 4C19.8218 4 19.8114 4 19.8009 4C19.7905 4 19.7801 4 19.7696 4C19.7592 4 19.7488 4 19.7384 4C19.728 4 19.7175 4 19.7071 4C19.6967 4 19.6863 4 19.6759 4C19.6655 4 19.6551 4 19.6447 4C19.6343 4 19.6239 4 19.6135 4C19.6031 4 19.5927 4 19.5823 4C19.572 4 19.5616 4 19.5512 4C19.5408 4 19.5304 4 19.5201 4C19.5097 4 19.4993 4 19.489 4C19.4786 4 19.4682 4 19.4579 4C19.4475 4 19.4371 4 19.4268 4C19.4164 4 19.4061 4 19.3957 4C19.3854 4 19.375 4 19.3647 4C19.3544 4 19.344 4 19.3337 4C19.3233 4 19.313 4 19.3027 4C19.2923 4 19.282 4 19.2717 4C19.2614 4 19.251 4 19.2407 4C19.2304 4 19.2201 4 19.2098 4C19.1995 4 19.1892 4 19.1789 4C19.1685 4 19.1582 4 19.1479 4C19.1376 4 19.1273 4 19.117 4C19.1068 4 19.0965 4 19.0862 4C19.0759 4 19.0656 4 19.0553 4C19.045 4 19.0348 4 19.0245 4C19.0142 4 19.0039 4 18.9937 4C18.9834 4 18.9731 4 18.9628 4C18.9526 4 18.9423 4 18.9321 4C18.9218 4 18.9115 4 18.9013 4C18.891 4 18.8808 4 18.8705 4C18.8603 4 18.85 4 18.8398 4C18.8296 4 18.8193 4 18.8091 4C18.7988 4 18.7886 4 18.7784 4C18.7681 4 18.7579 4 18.7477 4C18.7375 4 18.7272 4 18.717 4C18.7068 4 18.6966 4 18.6864 4C18.6762 4 18.666 4 18.6557 4C18.6455 4 18.6353 4 18.6251 4C18.6149 4 18.6047 4 18.5945 4C18.5843 4 18.5741 4 18.5639 4C18.5537 4 18.5436 4 18.5334 4C18.5232 4 18.513 4 18.5028 4C18.4926 4 18.4825 4 18.4723 4C18.4621 4 18.4519 4 18.4418 4C18.4316 4 18.4214 4 18.4113 4C18.4011 4 18.3909 4 18.3808 4C18.3706 4 18.3605 4 18.3503 4C18.3401 4 18.33 4 18.3198 4C18.3097 4 18.2995 4 18.2894 4C18.2793 4 18.2691 4 18.259 4C18.2488 4 18.2387 4 18.2286 4C18.2184 4 18.2083 4 18.1982 4C18.1881 4 18.1779 4 18.1678 4C18.1577 4 18.1476 4 18.1374 4C18.1273 4 18.1172 4 18.1071 4C18.097 4 18.0869 4 18.0768 4C18.0667 4 18.0565 4 18.0464 4C18.0363 4 18.0262 4 18.0161 4C18.006 4 17.996 4 17.9859 4C17.9758 4 17.9657 4 17.9556 4C17.9455 4 17.9354 4 17.9253 4C17.9153 4 17.9052 4 17.8951 4C17.885 4 17.8749 4 17.8649 4C17.8548 4 17.8447 4 17.8347 4C17.8246 4 17.8145 4 17.8045 4C17.7944 4 17.7843 4 17.7743 4C17.7642 4 17.7542 4 17.7441 4C17.7341 4 17.724 4 17.714 4C17.7039 4 17.6939 4 17.6838 4C17.6738 4 17.6637 4 17.6537 4C17.6437 4 17.6336 4 17.6236 4C17.6136 4 17.6035 4 17.5935 4C17.5835 4 17.5734 4 17.5634 4C17.5534 4 17.5434 4 17.5333 4C17.5233 4 17.5133 4 17.5033 4C17.4933 4 17.4833 4 17.4732 4C17.4632 4 17.4532 4 17.4432 4C17.4332 4 17.4232 4 17.4132 4C17.4032 4 17.3932 4 17.3832 4C17.3732 4 17.3632 4 17.3532 4C17.3432 4 17.3332 4 17.3233 4C17.3133 4 17.3033 4 17.2933 4C17.2833 4 17.2733 4 17.2633 4C17.2534 4 17.2434 4 17.2334 4C17.2234 4 17.2135 4 17.2035 4C17.1935 4 17.1836 4 17.1736 4C17.1636 4 17.1537 4 17.1437 4C17.1337 4 17.1238 4 17.1138 4C17.1039 4 17.0939 4 17.084 4C17.074 4 17.064 4 17.0541 4C17.0442 4 17.0342 4 17.0243 4C17.0143 4 17.0044 4 16.9944 4C16.9845 4 16.9746 4 16.9646 4C16.9547 4 16.9447 4 16.9348 4C16.9249 4 16.9149 4 16.905 4C16.8951 4 16.8852 4 16.8752 4C16.8653 4 16.8554 4 16.8455 4C16.8356 4 16.8256 4 16.8157 4C16.8058 4 16.7959 4 16.786 4C16.7761 4 16.7662 4 16.7563 4C16.7463 4 16.7364 4 16.7265 4C16.7166 4 16.7067 4 16.6968 4C16.6869 4 16.677 4 16.6671 4C16.6572 4 16.6473 4 16.6375 4C16.6276 4 16.6177 4 16.6078 4C16.5979 4 16.588 4 16.5781 4C16.5682 4 16.5584 4 16.5485 4C16.5386 4 16.5287 4 16.5188 4C16.509 4 16.4991 4 16.4892 4C16.4793 4 16.4695 4 16.4596 4C16.4497 4 16.4399 4 16.43 4C16.4201 4 16.4103 4 16.4004 4C16.3905 4 16.3807 4 16.3708 4C16.361 4 16.3511 4 16.3413 4C16.3314 4 16.3216 4 16.3117 4C16.3019 4 16.292 4 16.2822 4C16.2723 4 16.2625 4 16.2526 4C16.2428 4 16.2329 4 16.2231 4C16.2133 4 16.2034 4 16.1936 4C16.1838 4 16.1739 4 16.1641 4C16.1543 4 16.1444 4 16.1346 4C16.1248 4 16.1149 4 16.1051 4C16.0953 4 16.0855 4 16.0756 4C16.0658 4 16.056 4 16.0462 4C16.0364 4 16.0265 4 16.0167 4C16.0069 4 15.9971 4 15.9873 4C15.9775 4 15.9677 4 15.9579 4C15.948 4 15.9382 4 15.9284 4C15.9186 4 15.9088 4 15.899 4C15.8892 4 15.8794 4 15.8696 4C15.8598 4 15.85 4 15.8402 4C15.8304 4 15.8206 4 15.8108 4C15.8011 4 15.7913 4 15.7815 4C15.7717 4 15.7619 4 15.7521 4C15.7423 4 15.7325 4 15.7228 4C15.713 4 15.7032 4 15.6934 4C15.6836 4 15.6739 4 15.6641 4C15.6543 4 15.6445 4 15.6348 4C15.625 4 15.6152 4 15.6054 4C15.5957 4 15.5859 4 15.5761 4C15.5664 4 15.5566 4 15.5468 4C15.5371 4 15.5273 4 15.5175 4C15.5078 4 15.498 4 15.4883 4C15.4785 4 15.4688 4 15.459 4C15.4492 4 15.4395 4 15.4297 4C15.42 4 15.4102 4 15.4005 4C15.3907 4 15.381 4 15.3712 4C15.3615 4 15.3517 4 15.342 4C15.3323 4 15.3225 4 15.3128 4C15.303 4 15.2933 4 15.2836 4C15.2738 4 15.2641 4 15.2543 4C15.2446 4 15.2349 4 15.2251 4C15.2154 4 15.2057 4 15.1959 4C15.1862 4 15.1765 4 15.1668 4C15.157 4 15.1473 4 15.1376 4C15.1279 4 15.1181 4 15.1084 4C15.0987 4 15.089 4 15.0793 4C15.0695 4 15.0598 4 15.0501 4C15.0404 4 15.0307 4 15.021 4C15.0112 4 15.0015 4 14.9918 4C14.9821 4 14.9724 4 14.9627 4C14.953 4 14.9433 4 14.9336 4C14.9239 4 14.9141 4 14.9044 4C14.8947 4 14.885 4 14.8753 4C14.8656 4 14.8559 4 14.8462 4C14.8365 4 14.8268 4 14.8171 4C14.8074 4 14.7977 4 14.7881 4C14.7784 4 14.7687 4 14.759 4C14.7493 4 14.7396 4 14.7299 4C14.7202 4 14.7105 4 14.7008 4C14.6911 4 14.6815 4 14.6718 4C14.6621 4 14.6524 4 14.6427 4C14.633 4 14.6234 4 14.6137 4C14.604 4 14.5943 4 14.5846 4C14.575 4 14.5653 4 14.5556 4C14.5459 4 14.5363 4 14.5266 4C14.5169 4 14.5072 4 14.4976 4C14.4879 4 14.4782 4 14.4685 4C14.4589 4 14.4492 4 14.4395 4C14.4299 4 14.4202 4 14.4105 4C14.4009 4 14.3912 4 14.3815 4C14.3719 4 14.3622 4 14.3526 4C14.3429 4 14.3332 4 14.3236 4C14.3139 4 14.3043 4 14.2946 4C14.2849 4 14.2753 4 14.2656 4C14.256 4 14.2463 4 14.2367 4C14.227 4 14.2174 4 14.2077 4C14.1981 4 14.1884 4 14.1787 4C14.1691 4 14.1594 4 14.1498 4C14.1402 4 14.1305 4 14.1209 4C14.1112 4 14.1016 4 14.0919 4C14.0823 4 14.0726 4 14.063 4C14.0533 4 14.0437 4 14.0341 4C14.0244 4 14.0148 4 14.0051 4C13.9955 4 13.9859 4 13.9762 4C13.9666 4 13.957 4 13.9473 4C13.9377 4 13.928 4 13.9184 4C13.9088 4 13.8991 4 13.8895 4C13.8799 4 13.8702 4 13.8606 4C13.851 4 13.8413 4 13.8317 4C13.8221 4 13.8125 4 13.8028 4C13.7932 4 13.7836 4 13.7739 4C13.7643 4 13.7547 4 13.7451 4C13.7354 4 13.7258 4 13.7162 4C13.7066 4 13.697 4 13.6873 4C13.6777 4 13.6681 4 13.6585 4C13.6488 4 13.6392 4 13.6296 4C13.62 4 13.6104 4 13.6007 4C13.5911 4 13.5815 4 13.5719 4C13.5623 4 13.5527 4 13.543 4C13.5334 4 13.5238 4 13.5142 4C13.5046 4 13.495 4 13.4854 4C13.4757 4 13.4661 4 13.4565 4C13.4469 4 13.4373 4 13.4277 4C13.4181 4 13.4085 4 13.3989 4C13.3893 4 13.3796 4 13.37 4C13.3604 4 13.3508 4 13.3412 4C13.3316 4 13.322 4 13.3124 4C13.3028 4 13.2932 4 13.2836 4C13.274 4 13.2644 4 13.2548 4C13.2452 4 13.2356 4 13.226 4C13.2164 4 13.2068 4 13.1972 4C13.1876 4 13.1779 4 13.1683 4C13.1587 4 13.1491 4 13.1395 4C13.13 4 13.1204 4 13.1108 4C13.1012 4 13.0916 4 13.082 4C13.0724 4 13.0628 4 13.0532 4C13.0436 4 13.034 4 13.0244 4C13.0148 4 13.0052 4 12.9956 4C12.986 4 12.9764 4 12.9668 4C12.9572 4 12.9476 4 12.938 4C12.9284 4 12.9188 4 12.9092 4C12.8997 4 12.8901 4 12.8805 4C12.8709 4 12.8613 4 12.8517 4C12.8421 4 12.8325 4 12.8229 4C12.8133 4 12.8037 4 12.7942 4C12.7846 4 12.775 4 12.7654 4C12.7558 4 12.7462 4 12.7366 4C12.727 4 12.7174 4 12.7079 4C12.6983 4 12.6887 4 12.6791 4C12.6695 4 12.6599 4 12.6503 4C12.6408 4 12.6312 4 12.6216 4C12.612 4 12.6024 4 12.5928 4C12.5832 4 12.5737 4 12.5641 4C12.5545 4 12.5449 4 12.5353 4C12.5257 4 12.5161 4 12.5066 4C12.497 4 12.4874 4 12.4778 4C12.4682 4 12.4586 4 12.4491 4C12.4395 4 12.4299 4 12.4203 4C12.4107 4 12.4011 4 12.3916 4C12.382 4 12.3724 4 12.3628 4C12.3532 4 12.3436 4 12.3341 4C12.3245 4 12.3149 4 12.3053 4C12.2957 4 12.2862 4 12.2766 4C12.267 4 12.2574 4 12.2478 4C12.2383 4 12.2287 4 12.2191 4C12.2095 4 12.1999 4 12.1903 4C12.1808 4 12.1712 4 12.1616 4C12.152 4 12.1424 4 12.1329 4C12.1233 4 12.1137 4 12.1041 4C12.0945 4 12.085 4 12.0754 4C12.0658 4 12.0562 4 12.0466 4C12.0371 4 12.0275 4 12.0179 4C12.0083 4 11.9987 4 11.9892 4C11.9796 4 11.97 4 11.9604 4C11.9508 4 11.9413 4 11.9317 4C11.9221 4 11.9125 4 11.9029 4C11.8934 4 11.8838 4 11.8742 4C11.8646 4 11.855 4 11.8455 4C11.8359 4 11.8263 4 11.8167 4C11.8071 4 11.7975 4 11.788 4C11.7784 4 11.7688 4 11.7592 4C11.7496 4 11.7401 4 11.7305 4C11.7209 4 11.7113 4 11.7017 4C11.6922 4 11.6826 4 11.673 4C11.6634 4 11.6538 4 11.6442 4C11.6347 4 11.6251 4 11.6155 4C11.6059 4 11.5963 4 11.5867 4C11.5772 4 11.5676 4 11.558 4C11.5484 4 11.5388 4 11.5293 4C11.5197 4 11.5101 4 11.5005 4C11.4909 4 11.4813 4 11.4717 4C11.4622 4 11.4526 4 11.443 4C11.4334 4 11.4238 4 11.4142 4C11.4047 4 11.3951 4 11.3855 4C11.3759 4 11.3663 4 11.3567 4C11.3471 4 11.3375 4 11.328 4C11.3184 4 11.3088 4 11.2992 4C11.2896 4 11.28 4 11.2704 4C11.2608 4 11.2513 4 11.2417 4C11.2321 4 11.2225 4 11.2129 4C11.2033 4 11.1937 4 11.1841 4C11.1745 4 11.165 4 11.1554 4C11.1458 4 11.1362 4 11.1266 4C11.117 4 11.1074 4 11.0978 4C11.0882 4 11.0786 4 11.069 4C11.0594 4 11.0498 4 11.0403 4C11.0307 4 11.0211 4 11.0115 4C11.0019 4 10.9923 4 10.9827 4C10.9731 4 10.9635 4 10.9539 4C10.9443 4 10.9347 4 10.9251 4C10.9155 4 10.9059 4 10.8963 4C10.8867 4 10.8771 4 10.8675 4C10.8579 4 10.8483 4 10.8387 4C10.8291 4 10.8195 4 10.8099 4C10.8003 4 10.7907 4 10.7811 4C10.7715 4 10.7619 4 10.7523 4C10.7427 4 10.7331 4 10.7235 4C10.7139 4 10.7043 4 10.6947 4C10.6851 4 10.6755 4 10.6659 4C10.6563 4 10.6466 4 10.637 4C10.6274 4 10.6178 4 10.6082 4C10.5986 4 10.589 4 10.5794 4C10.5698 4 10.5602 4 10.5506 4C10.5409 4 10.5313 4 10.5217 4C10.5121 4 10.5025 4 10.4929 4C10.4833 4 10.4736 4 10.464 4C10.4544 4 10.4448 4 10.4352 4C10.4256 4 10.416 4 10.4063 4C10.3967 4 10.3871 4 10.3775 4C10.3679 4 10.3582 4 10.3486 4C10.339 4 10.3294 4 10.3198 4C10.3101 4 10.3005 4 10.2909 4C10.2813 4 10.2716 4 10.262 4C10.2524 4 10.2428 4 10.2331 4C10.2235 4 10.2139 4 10.2043 4C10.1946 4 10.185 4 10.1754 4C10.1657 4 10.1561 4 10.1465 4C10.1369 4 10.1272 4 10.1176 4C10.108 4 10.0983 4 10.0887 4C10.0791 4 10.0694 4 10.0598 4C10.0501 4 10.0405 4 10.0309 4C10.0212 4 10.0116 4 10.002 4C9.99232 4 9.98268 4 9.97304 4C9.9634 4 9.95375 4 9.94411 4C9.93447 4 9.92483 4 9.91518 4C9.90554 4 9.89589 4 9.88624 4C9.8766 4 9.86695 4 9.8573 4C9.84766 4 9.83801 4 9.82836 4C9.81871 4 9.80906 4 9.79941 4C9.78975 4 9.7801 4 9.77045 4C9.76079 4 9.75114 4 9.74148 4C9.73183 4 9.72217 4 9.71251 4C9.70286 4 9.6932 4 9.68354 4C9.67388 4 9.66422 4 9.65456 4C9.6449 4 9.63524 4 9.62557 4C9.61591 4 9.60624 4 9.59658 4C9.58691 4 9.57725 4 9.56758 4C9.55791 4 9.54824 4 9.53857 4C9.52891 4 9.51923 4 9.50956 4C9.49989 4 9.49022 4 9.48055 4C9.47087 4 9.4612 4 9.45152 4C9.44184 4 9.43217 4 9.42249 4C9.41281 4 9.40313 4 9.39345 4C9.38377 4 9.37409 4 9.36441 4C9.35473 4 9.34504 4 9.33536 4C9.32567 4 9.31599 4 9.3063 4C9.29661 4 9.28693 4 9.27724 4C9.26755 4 9.25786 4 9.24817 4C9.23847 4 9.22878 4 9.21909 4C9.20939 4 9.1997 4 9.19 4C9.18031 4 9.17061 4 9.16091 4C9.15121 4 9.14151 4 9.13181 4C9.12211 4 9.11241 4 9.1027 4C9.093 4 9.08329 4 9.07359 4C9.06388 4 9.05417 4 9.04447 4C9.03476 4 9.02505 4 9.01534 4C9.00563 4 8.99591 4 8.9862 4C8.97649 4 8.96677 4 8.95706 4C8.94734 4 8.93762 4 8.9279 4C8.91818 4 8.90846 4 8.89874 4C8.88902 4 8.8793 4 8.86957 4C8.85985 4 8.85013 4 8.8404 4C8.83067 4 8.82094 4 8.81121 4C8.80149 4 8.79175 4 8.78202 4C8.77229 4 8.76256 4 8.75282 4C8.74309 4 8.73335 4 8.72361 4C8.71388 4 8.70414 4 8.6944 4C8.68466 4 8.67491 4 8.66517 4C8.65543 4 8.64568 4 8.63594 4C8.62619 4 8.61644 4 8.6067 4C8.59695 4 8.5872 4 8.57744 4C8.56769 4 8.55794 4 8.54819 4C8.53843 4 8.52867 4 8.51892 4C8.50916 4 8.4994 4 8.48964 4C8.47988 4 8.47012 4 8.46035 4C8.45059 4 8.44083 4 8.43106 4C8.42129 4 8.41152 4 8.40175 4C8.39198 4 8.38221 4 8.37244 4C8.36267 4 8.35289 4 8.34312 4C8.33334 4 8.32357 4 8.31379 4C8.30401 4 8.29423 4 8.28445 4C8.27466 4 8.26488 4 8.2551 4C8.24531 4 8.23552 4 8.22574 4C8.21595 4 8.20616 4 8.19637 4C8.18657 4 8.17678 4 8.16699 4C8.15719 4 8.1474 4 8.1376 4C8.1278 4 8.118 4 8.1082 4C8.0984 4 8.08859 4 8.07879 4C8.06899 4 8.05918 4 8.04937 4C8.03956 4 8.02975 4 8.01994 4C8.01013 4 8.00032 4 7.9905 4C7.98069 4 7.97087 4 7.96106 4C7.95124 4 7.94142 4 7.9316 4C7.92177 4 7.91195 4 7.90213 4C7.8923 4 7.88248 4 7.87265 4C7.86282 4 7.85299 4 7.84316 4C7.83332 4 7.82349 4 7.81366 4C7.80382 4 7.79398 4 7.78414 4C7.77431 4 7.76447 4 7.75462 4C7.74478 4 7.73494 4 7.72509 4C7.71524 4 7.7054 4 7.69555 4C7.6857 4 7.67585 4 7.66599 4C7.65614 4 7.64628 4 7.63643 4C7.62657 4 7.61671 4 7.60685 4C7.59699 4 7.58713 4 7.57726 4C7.5674 4 7.55753 4 7.54766 4C7.5378 4 7.52793 4 7.51805 4C7.50818 4 7.49831 4 7.48843 4C7.47856 4 7.46868 4 7.4588 4C7.44892 4 7.43904 4 7.42916 4C7.41927 4 7.40939 4 7.3995 4C7.38961 4 7.37972 4 7.36983 4C7.35994 4 7.35005 4 7.34015 4C7.33026 4 7.32036 4 7.31046 4C7.30056 4 7.29066 4 7.28076 4C7.27086 4 7.26095 4 7.25104 4C7.24114 4 7.23123 4 7.22132 4C7.21141 4 7.20149 4 7.19158 4C7.18166 4 7.17175 4 7.16183 4C7.15191 4 7.14199 4 7.13206 4C7.12214 4 7.11222 4 7.10229 4C7.09236 4 7.08243 4 7.0725 4C7.06257 4 7.05264 4 7.0427 4C7.03277 4 7.02283 4 7.01289 4C7.00295 4 6.99301 4 6.98306 4C6.97312 4 6.96317 4 6.95323 4C6.94328 4 6.93333 4 6.92337 4C6.91342 4 6.90347 4 6.89351 4C6.88355 4 6.8736 4 6.86363 4C6.85367 4 6.84371 4 6.83375 4C6.82378 4 6.81381 4 6.80384 4C6.79387 4 6.7839 4 6.77393 4C6.76395 4 6.75398 4 6.744 4C6.73402 4 6.72404 4 6.71406 4C6.70407 4 6.69409 4 6.6841 4C6.67411 4 6.66413 4 6.65413 4C6.64414 4 6.63415 4 6.62415 4C6.61416 4 6.60416 4 6.59416 4C6.58415 4 6.57415 4 6.56415 4C6.55414 4 6.54413 4 6.53412 4C6.52411 4 6.5141 4 6.50409 4C6.49407 4 6.48406 4 6.47404 4C6.46402 4 6.454 4 6.44397 4C6.43395 4 6.42392 4 6.41389 4C6.40387 4 6.39383 4 6.3838 4C6.37377 4 6.36373 4 6.3537 4C6.34366 4 6.33362 4 6.32357 4C6.31353 4 6.30349 4 6.29344 4C6.28339 4 6.27334 4 6.26329 4C6.25324 4 6.24318 4 6.23313 4C6.22307 4 6.21301 4 6.20295 4C6.19289 4 6.18282 4 6.17276 4C6.16269 4 6.15262 4 6.14255 4C6.13248 4 6.1224 4 6.11233 4C6.10225 4 6.09217 4 6.08209 4C6.07201 4 6.06192 4 6.05184 4C6.04175 4 6.03166 4 6.02157 4C6.01148 4 6.00138 4 5.99129 4C5.98119 4 5.97109 4 5.96099 4C5.95089 4 5.94079 4 5.93068 4C5.92057 4 5.91046 4 5.90035 4C5.89024 4 5.88013 4 5.87001 4C5.85989 4 5.84977 4 5.83965 4C5.82953 4 5.81941 4 5.80928 4C5.79915 4 5.78902 4 5.77889 4C5.76876 4 5.75862 4 5.74849 4C5.73835 4 5.72821 4 5.71807 4C5.70792 4 5.69778 4 5.68763 4C5.67748 4 5.66733 4 5.65718 4C5.64702 4 5.63687 4 5.62671 4C5.61655 4 5.60639 4 5.59623 4C5.58606 4 5.5759 4 5.56573 4C5.55556 4 5.54539 4 5.53521 4C5.52504 4 5.51486 4 5.50468 4C5.4945 4 5.48432 4 5.47413 4C5.46395 4 5.45376 4 5.44357 4C5.43338 4 5.42318 4 5.41299 4C5.40279 4 5.39259 4 5.38239 4C5.37219 4 5.36198 4 5.35178 4C5.34157 4 5.33136 4 5.32115 4C5.31093 4 5.30072 4 5.2905 4C5.28028 4 5.27006 4 5.25983 4C5.24961 4 5.23938 4 5.22915 4C5.21892 4 5.20869 4 5.19846 4C5.18822 4 5.17798 4 5.16774 4C5.1575 4 5.14726 4 5.13701 4C5.12676 4 5.11651 4 5.10626 4C5.09601 4 5.08575 4 5.07549 4C5.06524 4 5.05498 4 5.04471 4C5.03445 4 5.02418 4 5.01391 4C5.00364 4 4.99337 4 4.98309 4C4.97282 4 4.96254 4 4.95226 4C4.94198 4 4.93169 4 4.9214 4C4.91112 4 4.90083 4 4.89053 4C4.88024 4 4.86994 4 4.85964 4C4.84934 4 4.83904 4 4.82874 4V5ZM21.5477 8.21335L20.7528 7.60667L11.6 19.5999L12.395 20.2066L13.1899 20.8133L22.3427 8.82002L21.5477 8.21335ZM8.82516 19.2761L9.81511 19.1347L9.17151 14.6295L8.18156 14.7709L7.19161 14.9124L7.83521 19.4175L8.82516 19.2761ZM9.07995 12.8057L9.62071 13.6469L15.5408 9.84118L15 9L14.4592 8.15882L8.53919 11.9646L9.07995 12.8057ZM8.18156 14.7709L9.17151 14.6295C9.1162 14.2423 9.2917 13.8584 9.62071 13.6469L9.07995 12.8057L8.53919 11.9646C7.55217 12.5991 7.02567 13.7508 7.19161 14.9124L8.18156 14.7709ZM12.395 20.2066L11.6 19.5999C11.062 20.305 9.94053 20.0126 9.81511 19.1347L8.82516 19.2761L7.83521 19.4175C8.21148 22.0514 11.5758 22.9283 13.1899 20.8133L12.395 20.2066ZM19.9576 5V6C20.7857 6 21.2549 6.94867 20.7528 7.60667L21.5477 8.21335L22.3427 8.82002C23.8496 6.84545 22.4412 4 19.9576 4V5ZM3.41422 8.41422L4.12132 7.70711C3.49159 7.07738 3.9375 6 4.82874 6V5V4C2.15635 4 0.816982 7.2312 2.70711 9.12132L3.41422 8.41422Z" fill="currentColor"/>
</g>
</svg>
