<svg preserveAspectRatio="none" width="100%" height="100%" overflow="visible" style="display: block;" viewBox="0 0 18 20" fill="none" xmlns="http://www.w3.org/2000/svg">
<g id="Group">
<path id="Vector" d="M16.6898 9.90548L9.59739 16.9976C9.14048 17.4545 8.61599 17.7949 8.05505 18.0224C7.21407 18.3634 6.29079 18.4493 5.40837 18.2783C4.52567 18.1072 3.68751 17.6826 3.00224 16.9976C2.5456 16.541 2.20552 16.0165 1.97774 15.4553C1.63677 14.6143 1.55083 13.691 1.72189 12.8089C1.89321 11.9262 2.31759 11.088 3.00228 10.4028L10.937 2.46802C11.216 2.18935 11.5347 1.98247 11.8759 1.84423C12.3876 1.6365 12.9508 1.58423 13.4877 1.68822C14.0256 1.79279 14.5345 2.05033 14.9525 2.46802C15.2311 2.74669 15.4378 3.06537 15.5763 3.40689C15.784 3.9183 15.8363 4.48119 15.732 5.01876C15.6277 5.55634 15.3702 6.06497 14.9525 6.48353L7.25384 14.1821C7.15485 14.2809 7.04388 14.3526 6.92431 14.4013C6.74575 14.4736 6.54692 14.4925 6.3581 14.4558C6.16872 14.4185 5.99267 14.3298 5.84442 14.1821C5.74544 14.0831 5.67396 13.9724 5.62556 13.8529C5.55271 13.6743 5.53407 13.4752 5.57079 13.2867C5.60778 13.0976 5.69677 12.9212 5.84442 12.773L12.7007 5.91646L11.5438 4.75955L4.68728 11.6158C4.43196 11.8711 4.23786 12.1698 4.10911 12.4874C3.9161 12.9638 3.86825 13.4824 3.9645 13.9797C4.06017 14.4769 4.3038 14.9558 4.68728 15.339C4.94286 15.5949 5.24126 15.789 5.55857 15.9175C6.03521 16.1108 6.5536 16.1583 7.05114 16.0621C7.5481 15.9664 8.02728 15.7231 8.41075 15.339L16.1097 7.64064C16.5449 7.20513 16.8742 6.69872 17.0927 6.15951C17.4206 5.35025 17.5021 4.46755 17.3386 3.62158C17.1754 2.77615 16.7632 1.96408 16.1097 1.31083C15.6742 0.8756 15.1677 0.546342 14.6285 0.327787C13.8193 -0.000376753 12.9366 -0.0815877 12.0906 0.0816545C11.2452 0.24517 10.4331 0.657319 9.77985 1.31087L1.84532 9.24583C1.23153 9.85876 0.769072 10.5713 0.461494 11.3299C-0.000107318 12.4687 -0.115264 13.7115 0.115283 14.9026C0.345283 16.0932 0.924541 17.2345 1.84536 18.1547C2.45856 18.7685 3.17079 19.231 3.92974 19.5386C5.06825 19.9999 6.31138 20.1151 7.5022 19.8848C8.69275 19.6545 9.83407 19.0755 10.7543 18.1547L17.8467 11.0624L16.6898 9.90548Z" fill="currentColor"/>
</g>
</svg>
