<svg width="24" height="24" viewBox="0 0 24 24" fill="none" xmlns="http://www.w3.org/2000/svg">
<path d="M12 10.2798C12.957 10.2798 13.7367 11.0604 13.7367 12.0166C13.7367 12.9728 12.9562 13.7284 12 13.7284C11.0438 13.7284 10.2882 12.9728 10.2882 12.0166C10.2882 11.0604 11.0438 10.2798 12 10.2798ZM12 6C17.6895 6 21.7922 11.3367 21.7922 11.3367C22.0693 11.6895 22.0693 12.3187 21.7922 12.6707C21.7922 12.6707 17.6887 18.0074 12 18.0074C6.31126 18.0074 2.20783 12.6707 2.20783 12.6707C1.93072 12.3179 1.93072 11.6887 2.20783 11.3367C2.20783 11.3367 6.31126 6 12 6ZM12 16.3214C14.3667 16.3214 16.3048 14.3833 16.3048 12.0166C16.3048 9.64991 14.3667 7.71178 12 7.71178C9.63332 7.71178 7.69518 9.64991 7.69518 12.0166C7.69518 14.3833 9.63332 16.3214 12 16.3214Z" fill="#666666"/>
</svg>
