<svg preserveAspectRatio="none" width="100%" height="100%" overflow="visible" style="display: block;" viewBox="0 0 116 40" fill="none" xmlns="http://www.w3.org/2000/svg">
<g id="images/bannerPlane">
<g id="Vector">
<path d="M27.2705 4.29309C27.0979 3.94595 27.7452 2.94792 28.9102 1.77632C30.4636 0.214189 31.0677 -0.132951 31.9307 0.0406191C32.5348 0.170797 41.4667 3.6856 70.5495 15.3582L87.8093 9.5002C104.379 3.90256 105.199 3.6422 108.737 3.59881C111.585 3.59881 112.793 3.77238 114.131 4.42327C115.598 5.16094 115.857 5.50808 115.986 6.80986C116.072 7.93807 115.77 8.80592 114.821 10.1511C114.087 11.1925 112.577 12.7113 111.455 13.5357C109.772 14.7507 104.983 16.5298 86.0833 22.8217C73.2679 27.1176 56.4827 32.7152 34.7354 39.875L28.6944 39.6146C25.3719 39.4845 20.2371 39.0071 17.2598 38.5298C14.2825 38.0525 11.3052 37.445 10.5716 37.1847C9.79494 36.9243 9.44975 36.5772 9.70865 36.3602C9.96754 36.1866 14.714 34.4509 20.2803 32.4983C25.8466 30.589 33.2683 28.0288 36.7634 26.8138C40.3017 25.5988 43.1495 24.4272 43.1495 24.1669C43.1495 23.9065 39.6544 19.4805 35.3395 14.2734C31.0677 9.10967 27.4 4.59684 27.2705 4.29309Z" fill="currentColor"/>
<path d="M0 24.6876C0 24.514 0.647243 23.8631 1.42393 23.2122C2.15748 22.5614 2.89102 22.0407 3.02047 21.9973C3.14992 21.9973 6.99023 23.7764 11.5209 25.9894C16.0948 28.2024 19.8488 30.1117 19.8488 30.2418C19.8488 30.372 17.1735 31.4134 13.9373 32.5417C10.6579 33.6699 7.98266 34.5811 7.93951 34.4943C7.93951 34.4075 6.12723 32.2813 3.96976 29.6777C1.76913 27.1176 0 24.9046 0 24.6876Z" fill="currentColor"/>
</g>
</g>
</svg>
