<svg preserveAspectRatio="none" width="100%" height="100%" overflow="visible" style="display: block;" viewBox="0 0 16 10" fill="none" xmlns="http://www.w3.org/2000/svg">
<g id="Group 3397">
<path id="Vector" d="M8 3.42388C8.76559 3.42388 9.3894 4.04833 9.3894 4.81328C9.3894 5.57822 8.76494 6.1827 8 6.1827C7.23506 6.1827 6.63058 5.57822 6.63058 4.81328C6.63058 4.04833 7.23506 3.42388 8 3.42388ZM8 0C12.5516 0 15.8337 4.26937 15.8337 4.26937C16.0554 4.55164 16.0554 5.05494 15.8337 5.33656C15.8337 5.33656 12.551 9.60593 8 9.60593C3.44901 9.60593 0.166264 5.33656 0.166264 5.33656C-0.0554213 5.05429 -0.0554213 4.55099 0.166264 4.26937C0.166264 4.26937 3.44901 0 8 0ZM8 8.25713C9.89335 8.25713 11.4439 6.70662 11.4439 4.81328C11.4439 2.91993 9.89335 1.36942 8 1.36942C6.10665 1.36942 4.55615 2.91993 4.55615 4.81328C4.55615 6.70662 6.10665 8.25713 8 8.25713Z" fill="var(--fill-0, #AAAAAA)"/>
</g>
</svg>
