<svg width="24" height="24" viewBox="0 0 24 24" fill="none" xmlns="http://www.w3.org/2000/svg">
<path fill-rule="evenodd" clip-rule="evenodd" d="M14.15 3.96552C15.2811 3.5032 16.5229 3.38266 17.7218 3.61882C18.9207 3.85498 20.024 4.43748 20.8953 5.29423C21.4727 5.86054 21.9315 6.53633 22.2446 7.28205C22.5578 8.02778 22.7191 8.82847 22.7191 9.63728C22.7191 10.4461 22.5578 11.2468 22.2446 11.9925C21.9315 12.7382 21.4727 13.414 20.8953 13.9803L12.5729 22.2064C12.3824 22.3945 12.1254 22.5 11.8576 22.5C11.5899 22.5 11.3329 22.3945 11.1424 22.2064L2.81865 13.9817C2.24322 13.4141 1.78616 12.738 1.47398 11.9925C1.16179 11.247 1.00068 10.4469 1 9.63864C1.00051 8.83017 1.16152 8.02984 1.47371 7.28408C1.7859 6.53831 2.24306 5.86195 2.81865 5.29423C3.98524 4.14346 5.55835 3.49881 7.197 3.5C8.8365 3.5 10.4122 4.14467 11.5753 5.29423L11.8576 5.57245L12.1399 5.29423C12.7162 4.72434 13.3987 4.27293 14.1486 3.96552H14.15ZM19.4648 6.74101C18.6775 5.97058 17.6198 5.53915 16.5183 5.53915C15.4168 5.53915 14.3591 5.97058 13.5718 6.74101L12.5729 7.72769C12.3824 7.91584 12.1254 8.02134 11.8576 8.02134C11.5899 8.02134 11.3329 7.91584 11.1424 7.72769L10.1435 6.74236C9.35854 5.96869 8.3005 5.53523 7.19835 5.53581C6.08952 5.53581 5.02954 5.97011 4.25051 6.74236C3.86653 7.1205 3.56144 7.5711 3.35292 8.06804C3.14441 8.56498 3.03662 9.09837 3.03581 9.63728C3.03644 10.1764 3.14414 10.7101 3.35266 11.2073C3.56118 11.7044 3.86636 12.1553 4.25051 12.5336L11.8576 20.0525L19.4648 12.5336C19.8502 12.1522 20.1569 11.7002 20.3646 11.2035C20.6797 10.4553 20.7623 9.62954 20.6019 8.83369C20.4414 8.03784 20.0452 7.30868 19.4648 6.74101Z" fill="#AAAAAA"/>
<path d="M13.2636 9.87916L13.3354 9.94407C13.7085 10.2487 14.2594 10.2271 14.6073 9.87916C14.9553 9.53124 14.9769 8.98034 14.6723 8.6072L14.6073 8.53538L11.0718 4.99985L9.72803 6.34363L13.2636 9.87916Z" fill="#AAAAAA"/>
</svg>
