<svg preserveAspectRatio="none" width="100%" height="100%" overflow="visible" style="display: block;" viewBox="0 0 78 13" fill="none" xmlns="http://www.w3.org/2000/svg">
<g id="Right Side">
<g id="Battery">
<path id="Outline" opacity="0.35" d="M54 0.527344H71C72.9178 0.527344 74.4727 2.08222 74.4727 4V9C74.4727 10.9178 72.9178 12.4727 71 12.4727H54C52.0822 12.4727 50.5273 10.9178 50.5273 9V4C50.5273 2.08222 52.0822 0.527344 54 0.527344Z" stroke="var(--stroke-0, white)" stroke-width="1.05509"/>
<path id="Battery End" opacity="0.4" d="M76 5V9.22034C76.8491 8.86291 77.4012 8.0314 77.4012 7.11017C77.4012 6.18894 76.8491 5.35744 76 5" fill="var(--fill-0, white)"/>
<path id="Fill" d="M52 4C52 2.89543 52.8954 2 54 2H71C72.1046 2 73 2.89543 73 4V9C73 10.1046 72.1046 11 71 11H54C52.8954 11 52 10.1046 52 9V4Z" fill="var(--fill-0, white)"/>
</g>
<path id="Wifi" d="M32.1152 10.0849C33.535 8.85924 35.6144 8.85938 37.0342 10.0849C37.1056 10.1508 37.1474 10.2444 37.1494 10.3427C37.1513 10.4409 37.1136 10.5356 37.0449 10.6044L34.8213 12.8945C34.7562 12.9616 34.6678 12.9998 34.5752 12.9999C34.4825 12.9999 34.3933 12.9618 34.3281 12.8945L32.1045 10.6044C32.0359 10.5356 31.998 10.4409 32 10.3427C32.002 10.2444 32.0438 10.1508 32.1152 10.0849ZM29.1094 7.26164C32.1685 4.35705 36.9058 4.35705 39.9648 7.26164C40.0337 7.32963 40.0731 7.42265 40.0742 7.52043C40.0752 7.61845 40.0374 7.7136 39.9697 7.78313L38.6846 9.10832C38.5521 9.24355 38.338 9.24689 38.2022 9.11516C37.1977 8.1867 35.8913 7.67177 34.5361 7.6718C33.1818 7.67237 31.876 8.18725 30.8721 9.11516C30.7362 9.24684 30.5221 9.24362 30.3897 9.10832L29.1045 7.78313C29.0368 7.71379 28.9992 7.61931 29 7.52141C29.0009 7.42347 29.0404 7.32973 29.1094 7.26164ZM26.1074 4.44231C30.7993 -0.147358 38.2007 -0.147291 42.8926 4.44231C42.9604 4.51038 42.9993 4.60306 43 4.70012C43.0006 4.79714 42.9633 4.89094 42.8965 4.95988L41.6094 6.28606C41.4769 6.422 41.2616 6.4237 41.127 6.28996C39.3393 4.5552 36.9666 3.58792 34.5 3.58781C32.0334 3.58793 29.6608 4.55519 27.873 6.28996C27.7385 6.42381 27.523 6.42219 27.3906 6.28606L26.1035 4.95988C26.0367 4.89088 25.9994 4.79718 26 4.70012C26.0007 4.60303 26.0396 4.51035 26.1074 4.44231Z" fill="var(--fill-0, white)"/>
<g id="Icon / Mobile Signal">
<path d="M10 4C10 3.44772 10.4477 3 11 3H12C12.5523 3 13 3.44772 13 4V12C13 12.5523 12.5523 13 12 13H11C10.4477 13 10 12.5523 10 12V4Z" fill="var(--fill-0, white)"/>
<path d="M15 2C15 1.44772 15.4477 1 16 1H17C17.5523 1 18 1.44772 18 2V12C18 12.5523 17.5523 13 17 13H16C15.4477 13 15 12.5523 15 12V2Z" fill="var(--fill-0, white)"/>
<path d="M5 7.5C5 6.94772 5.44772 6.5 6 6.5H7C7.55228 6.5 8 6.94772 8 7.5V12C8 12.5523 7.55228 13 7 13H6C5.44772 13 5 12.5523 5 12V7.5Z" fill="var(--fill-0, white)"/>
<path d="M0 10C0 9.44772 0.447715 9 1 9H2C2.55228 9 3 9.44772 3 10V12C3 12.5523 2.55228 13 2 13H1C0.447715 13 0 12.5523 0 12V10Z" fill="var(--fill-0, white)"/>
</g>
</g>
</svg>
